<?xml version="1.0" encoding="UTF-8" standalone="no"?>
<!-- Created with Inkscape (http://www.inkscape.org/) -->

<svg
   xmlns:dc="http://purl.org/dc/elements/1.1/"
   xmlns:cc="http://creativecommons.org/ns#"
   xmlns:rdf="http://www.w3.org/1999/02/22-rdf-syntax-ns#"
   xmlns:svg="http://www.w3.org/2000/svg"
   xmlns="http://www.w3.org/2000/svg"
   xmlns:sodipodi="http://sodipodi.sourceforge.net/DTD/sodipodi-0.dtd"
   xmlns:inkscape="http://www.inkscape.org/namespaces/inkscape"
   width="256"
   height="256"
   id="svg3432"
   version="1.1"
   inkscape:version="0.48.1 "
   sodipodi:docname="grain.svg">
  <defs
     id="defs3434" />
  <sodipodi:namedview
     id="base"
     pagecolor="#ffffff"
     bordercolor="#666666"
     borderopacity="1.0"
     inkscape:pageopacity="0.0"
     inkscape:pageshadow="2"
     inkscape:zoom="2.8"
     inkscape:cx="65.01244"
     inkscape:cy="122.98199"
     inkscape:document-units="px"
     inkscape:current-layer="layer1"
     showgrid="false"
     inkscape:showpageshadow="false"
     inkscape:window-width="1920"
     inkscape:window-height="1033"
     inkscape:window-x="-4"
     inkscape:window-y="-4"
     inkscape:window-maximized="1" />
  <metadata
     id="metadata3437">
    <rdf:RDF>
      <cc:Work
         rdf:about="">
        <dc:format>image/svg+xml</dc:format>
        <dc:type
           rdf:resource="http://purl.org/dc/dcmitype/StillImage" />
        <dc:title />
      </cc:Work>
    </rdf:RDF>
  </metadata>
  <g
     inkscape:label="Layer 1"
     inkscape:groupmode="layer"
     id="layer1"
     transform="translate(0,-796.36218)">
    <path
       style="fill:#deb407"
       d="M 210.32081,845.45035 C 115.6084,933.47654 70.44735,970.13566 14.671255,1049.4759 l 9.819592,2.0692 c 54.001867,-74.39286 52.552216,-73.89931 136.815643,-151.21592 19.20939,-18.39566 38.63264,-36.90224 57.75125,-55.18343 6.48611,-1.12454 -10.63341,-6.89241 -8.73693,0.3046 z"
       id="path9"
       inkscape:connector-curvature="0"
       sodipodi:nodetypes="cccccc" />
    <path
       d="m 235.62038,797.78695 c 0,0 -27.60835,9.84248 -31.10894,22.49091 -3.58276,12.57724 0.55375,27.77523 0.55375,27.77523 0,0 19.31144,-1.77846 24.92919,-19.60415 5.59065,-17.83831 5.626,-30.66199 5.626,-30.66199 z"
       id="path45"
       inkscape:connector-curvature="0"
       style="fill:#c49f06" />
    <path
       d="m 255.15574,859.85739 c 0,0 -26.41525,-12.66966 -37.83763,-6.29963 -11.48107,6.34266 -19.347,19.98005 -19.347,19.98005 0,0 14.83462,12.43298 31.46654,3.90049 16.63318,-8.57021 25.71809,-17.58091 25.71809,-17.58091 z"
       id="path47"
       inkscape:connector-curvature="0"
       style="fill:#c49f06" />
    <path
       d="m 220.82709,887.81411 c 0,0 -26.39295,-12.67026 -37.84147,-6.27933 -11.45429,6.34418 -19.30038,19.97424 -19.30038,19.97424 0,0 14.82443,12.46677 31.48226,3.90249 16.58611,-8.57596 25.65959,-17.5974 25.65959,-17.5974 z"
       id="path49"
       inkscape:connector-curvature="0"
       style="fill:#c49f06" />
    <path
       d="m 189.39277,921.98156 c 0,0 -26.39231,-12.64787 -37.85288,-6.2901 -11.48142,6.33145 -19.32743,19.96173 -19.32743,19.96173 0,0 14.84789,12.51067 31.46741,3.93386 16.675,-8.58929 25.7129,-17.60549 25.7129,-17.60549 z"
       id="path51"
       inkscape:connector-curvature="0"
       style="fill:#c49f06" />
    <path
       d="m 160.32919,952.00856 c 0,0 -26.41489,-12.65838 -37.88058,-6.32496 -11.43709,6.40167 -19.33286,20.00869 -19.33286,20.00869 0,0 14.887,12.47379 31.49372,3.91327 16.58703,-8.54242 25.71972,-17.597 25.71972,-17.597 z"
       id="path53"
       inkscape:connector-curvature="0"
       style="fill:#c49f06" />
    <path
       d="m 130.47489,983.44874 c 0,0 -26.41435,-12.63633 -37.889402,-6.31834 -11.476285,6.35593 -19.304601,19.98338 -19.304601,19.98338 0,0 14.840092,12.46852 31.477073,3.87792 16.60131,-8.51365 25.71693,-17.54296 25.71693,-17.54296 z"
       id="path55"
       inkscape:connector-curvature="0"
       style="fill:#c49f06" />
    <path
       d="m 98.511983,1020.0587 c 0,0 -26.439874,-12.6755 -37.883899,-6.2826 -11.425088,6.3522 -19.327483,19.9617 -19.327483,19.9617 0,0 14.862589,12.4789 31.498806,3.9375 16.612939,-8.5743 25.712576,-17.6166 25.712576,-17.6166 z"
       id="path57"
       inkscape:connector-curvature="0"
       style="fill:#c49f06" />
    <path
       d="m 196.38017,821.42981 c 0,0 -25.59948,14.24901 -27.0318,27.2736 -1.43712,13.01137 5.14602,27.33761 5.14602,27.33761 0,0 18.76617,-4.92522 21.35965,-23.43527 2.61907,-18.55312 0.52613,-31.17594 0.52613,-31.17594 z"
       id="path77"
       inkscape:connector-curvature="0"
       style="fill:#c49f06" />
    <path
       d="m 163.76709,851.29737 c 0,0 -25.61513,14.24721 -27.03391,27.27813 -1.44343,13.02489 5.14447,27.28178 5.14447,27.28178 0,0 18.71713,-4.92594 21.36691,-23.41534 2.59318,-18.52113 0.52253,-31.14457 0.52253,-31.14457 z"
       id="path79"
       inkscape:connector-curvature="0"
       style="fill:#c49f06" />
    <path
       d="m 130.29601,882.48603 c 0,0 -25.557,14.25231 -26.99116,27.29248 -1.42898,12.98226 5.14691,27.2885 5.14691,27.2885 0,0 18.78698,-4.89893 21.41388,-23.40982 2.56668,-18.51158 0.43037,-31.17116 0.43037,-31.17116 z"
       id="path81"
       inkscape:connector-curvature="0"
       style="fill:#c49f06" />
    <path
       d="m 96.893908,913.66841 c 0,0 -25.605145,14.28491 -26.99749,27.306 -1.440151,12.98249 5.12975,27.3135 5.12975,27.3135 0,0 18.78609,-4.93226 21.393056,-23.43615 2.582645,-18.49862 0.474684,-31.18335 0.474684,-31.18335 z"
       id="path83"
       inkscape:connector-curvature="0"
       style="fill:#c49f06" />
    <path
       d="m 63.504173,944.89505 c 0,0 -25.603074,14.28029 -27.028769,27.30251 -1.398653,13.03471 5.16376,27.33492 5.16376,27.33492 0,0 18.718213,-4.96427 21.345148,-23.47512 2.601938,-18.52801 0.519861,-31.16231 0.519861,-31.16231 z"
       id="path85"
       inkscape:connector-curvature="0"
       style="fill:#c49f06" />
    <path
       d="m 31.22182,980.33878 c 0,0 -25.5519154,14.27659 -27.0203949,27.28432 -1.4028043,13.044 5.1544787,27.3196 5.1544787,27.3196 0,0 18.7953702,-4.917 21.3732062,-23.4288 2.606717,-18.51497 0.49271,-31.17512 0.49271,-31.17512 z"
       id="path87"
       inkscape:connector-curvature="0"
       style="fill:#c49f06" />
  </g>
</svg>
