<?xml version="1.0" encoding="UTF-8" standalone="no"?>
<!-- Created with Inkscape (http://www.inkscape.org/) -->

<svg
   xmlns:dc="http://purl.org/dc/elements/1.1/"
   xmlns:cc="http://creativecommons.org/ns#"
   xmlns:rdf="http://www.w3.org/1999/02/22-rdf-syntax-ns#"
   xmlns:svg="http://www.w3.org/2000/svg"
   xmlns="http://www.w3.org/2000/svg"
   xmlns:sodipodi="http://sodipodi.sourceforge.net/DTD/sodipodi-0.dtd"
   xmlns:inkscape="http://www.inkscape.org/namespaces/inkscape"
   width="256"
   height="256"
   id="svg3432"
   version="1.1"
   inkscape:version="0.48.1 "
   sodipodi:docname="New document 1">
  <defs
     id="defs3434" />
  <sodipodi:namedview
     id="base"
     pagecolor="#ffffff"
     bordercolor="#666666"
     borderopacity="1.0"
     inkscape:pageopacity="0.0"
     inkscape:pageshadow="2"
     inkscape:zoom="2.8"
     inkscape:cx="123.76244"
     inkscape:cy="130.78395"
     inkscape:document-units="px"
     inkscape:current-layer="layer1"
     showgrid="false"
     inkscape:showpageshadow="false"
     inkscape:window-width="1920"
     inkscape:window-height="1033"
     inkscape:window-x="-4"
     inkscape:window-y="-4"
     inkscape:window-maximized="1" />
  <metadata
     id="metadata3437">
    <rdf:RDF>
      <cc:Work
         rdf:about="">
        <dc:format>image/svg+xml</dc:format>
        <dc:type
           rdf:resource="http://purl.org/dc/dcmitype/StillImage" />
        <dc:title></dc:title>
      </cc:Work>
    </rdf:RDF>
  </metadata>
  <g
     inkscape:label="Layer 1"
     inkscape:groupmode="layer"
     id="layer1"
     transform="translate(0,-796.36218)">
    <g
       transform="matrix(1.5004382,0,0,1.5004382,-637.12281,852.38438)"
       id="g5">
      <g
         id="g7">
        <path
           style="fill:#deb407"
           inkscape:connector-curvature="0"
           id="path9"
           d="M 560.569,42.089 557.99,41.025 543.779,35.344 C 519.81,25.826 503.712,20.611 477.007,16.622 c -23.243,-3.477 -36.014,0.475 -45.335,3.36 -1.423,0.436 -2.769,0.854 -4.03,1.205 -9.449,2.614 -20.104,13.286 -20.554,13.738 l 1.254,1.242 c 0.104,-0.11 10.772,-10.795 19.767,-13.286 1.294,-0.352 2.652,-0.775 4.09,-1.222 9.152,-2.837 21.697,-6.72 44.544,-3.304 26.531,3.966 42.76,8.797 66.597,18.255 6.991,2.776 11.281,4.343 16.418,6.474 l 0.914,0.198 c 1.365,0.508 0.718,1.082 1.044,0.234 0.307,-0.812 -0.4,-1.116 -1.147,-1.427 z" />
        <path
           style="fill:none;stroke:#deb407;stroke-width:0.76480001"
           inkscape:connector-curvature="0"
           id="path11"
           d="m 448.326,17.262 c 0,0 26.22,-8.662 52.664,-6.996 26.444,1.66 133.044,14.635 158.366,23.25" />
        <path
           style="fill:none;stroke:#deb407;stroke-width:0.76480001"
           inkscape:connector-curvature="0"
           id="path13"
           d="m 452.457,16.475 c 0,0 23.236,-8.637 72.393,-6.155 49.164,2.471 143.484,22.827 143.484,22.827" />
        <path
           style="fill:none;stroke:#deb407;stroke-width:0.76480001"
           inkscape:connector-curvature="0"
           id="path15"
           d="m 469.922,11.929 c 0,0 46.242,-1.562 71.226,1.329 24.982,2.912 87.459,11.651 93.138,11.851 5.676,0.205 29.67,1.934 29.67,1.934" />
        <path
           style="fill:none;stroke:#deb407;stroke-width:0.76480001"
           inkscape:connector-curvature="0"
           id="path17"
           d="m 655.201,27.933 c 0,0 -49.471,-5.212 -61.611,-5.956 -12.149,-0.741 -52.175,-5.437 -81.063,-7.036 -28.89,-1.594 -55.175,4.615 -55.175,4.615 0,0 61.435,21.132 93.981,34.158 32.547,13.026 95.472,42.414 110.123,45.539 14.654,3.118 25.406,7.547 25.406,7.547 0,0 -89.466,-32.96 -112.076,-44.888 C 552.187,49.99 519.459,39.12 489.294,30.098 c -30.17,-9.037 -50.284,-8.55 -53.56,-8.281" />
        <path
           style="fill:none;stroke:#deb407;stroke-width:0.76480001"
           inkscape:connector-curvature="0"
           id="path19"
           d="m 438.785,24.249 c 0,0 36.7,5.503 57.396,11.032 20.696,5.521 73.019,25.353 93.11,34.902 20.091,9.538 53.081,23.68 65.793,27.455 12.698,3.777 24.528,8.279 24.528,8.279" />
        <path
           style="fill:none;stroke:#deb407;stroke-width:0.76480001"
           inkscape:connector-curvature="0"
           id="path21"
           d="m 450.433,24.405 c 0,0 14.999,2.343 30.189,5.505 15.2,3.177 44.941,14.056 60.79,19.181 15.852,5.123 86.419,37.046 91.178,38.535 4.757,1.481 38.183,13.766 42.601,16.032 4.423,2.26 7.078,3.033 7.078,3.033" />
        <path
           style="fill:none;stroke:#deb407;stroke-width:0.76480001"
           inkscape:connector-curvature="0"
           id="path23"
           d="m 651.875,23.82 c 0,0 -49.477,-5.212 -61.62,-5.961 -12.143,-0.741 -52.166,-5.434 -81.058,-7.039 -28.887,-1.597 -55.178,4.624 -55.178,4.624 0,0 61.435,21.129 93.984,34.149 32.548,13.023 95.459,42.419 110.12,45.539 14.661,3.125 25.412,7.552 25.412,7.552 0,0 -89.472,-32.97 -112.076,-44.887 -22.602,-11.928 -55.336,-22.798 -85.5,-31.824 -30.168,-9.028 -50.282,-8.543 -53.558,-8.267" />
        <path
           style="fill:none;stroke:#deb407;stroke-width:0.76480001"
           inkscape:connector-curvature="0"
           id="path25"
           d="m 435.456,26.097 c 0,0 36.697,5.505 57.394,11.034 20.696,5.525 73.027,25.346 93.112,34.896 20.089,9.545 53.082,23.687 65.788,27.463 12.707,3.771 24.534,8.285 24.534,8.285" />
        <path
           style="fill:none;stroke:#deb407;stroke-width:0.76480001"
           inkscape:connector-curvature="0"
           id="path27"
           d="m 447.104,23.269 c 0,0 15.004,2.347 30.192,5.506 15.196,3.168 44.936,14.061 60.787,19.178 15.852,5.122 86.422,37.049 91.178,38.53 4.763,1.494 38.18,13.768 42.604,16.039 4.42,2.267 7.072,3.021 7.072,3.021" />
        <path
           style="fill:none;stroke:#deb407;stroke-width:0.76480001"
           inkscape:connector-curvature="0"
           id="path29"
           d="m 690.573,85.14 c 0,0 -25.973,2.444 -80.741,-17.312 C 555.058,48.06 525.834,40.738 519.459,39.12 513.089,37.503 443.385,19.986 443.385,19.986" />
        <path
           style="fill:none;stroke:#deb407;stroke-width:0.76480001"
           inkscape:connector-curvature="0"
           id="path31"
           d="m 695.738,71.972 c 0,0 -51.788,-6.771 -99.644,-24.873 -47.854,-18.094 -84.871,-32.847 -105.876,-34.6 -21.011,-1.758 -51.562,3.127 -51.562,3.127" />
        <path
           style="fill:none;stroke:#deb407;stroke-width:0.76480001"
           inkscape:connector-curvature="0"
           id="path33"
           d="m 692.504,71.699 c 0,0 -61.592,-15.989 -98.156,-29.618 C 557.783,28.446 524.379,19.15 510.595,15.285 496.811,11.425 470.529,11.128 470.529,11.128" />
        <path
           style="fill:none;stroke:#deb407;stroke-width:0.76480001"
           inkscape:connector-curvature="0"
           id="path35"
           d="m 694.597,71.69 c 0,0 -51.781,-6.773 -99.644,-24.87 C 547.096,28.723 510.085,13.967 489.068,12.212 468.066,10.459 437.525,15.34 437.525,15.34" />
        <path
           style="fill:none;stroke:#deb407;stroke-width:0.76480001"
           inkscape:connector-curvature="0"
           id="path37"
           d="m 691.368,71.414 c 0,0 -61.598,-15.987 -98.168,-29.622 C 556.638,28.164 523.234,18.864 509.456,14.999 495.675,11.131 469.387,10.842 469.387,10.842" />
        <path
           style="fill:none;stroke:#deb407;stroke-width:0.76480001"
           inkscape:connector-curvature="0"
           id="path39"
           d="m 679.461,72.001 c 0,0 -42.017,-16.52 -76.114,-27.237 -34.097,-10.717 -69.561,-21.27 -69.561,-21.27 0,0 -13.825,-3.321 -34.998,-6.446 -21.164,-3.125 -43.255,-4.963 -43.255,-4.963" />
        <path
           style="fill:none;stroke:#deb407;stroke-width:0.76480001"
           inkscape:connector-curvature="0"
           id="path41"
           d="m 677.82,72.821 c 0,0 -42.021,-16.528 -76.117,-27.246 -34.1,-10.712 -69.558,-21.271 -69.558,-21.271 0,0 -13.837,-3.318 -35.001,-6.442 -21.169,-3.127 -43.258,-4.967 -43.258,-4.967" />
        <g
           id="g43">
          <path
             style="fill:#c49f06"
             inkscape:connector-curvature="0"
             id="path45"
             d="m 571.382,42.648 c 0,0 -4.131,-4.186 -6.728,-3.75 -2.591,0.415 -5.004,2.456 -5.004,2.456 0,0 1.961,3.361 5.679,2.871 3.718,-0.496 6.053,-1.577 6.053,-1.577 z" />
          <path
             style="fill:#c49f06"
             inkscape:connector-curvature="0"
             id="path47"
             d="m 561.751,51.464 c 0,0 0.064,-5.878 -2.063,-7.415 -2.127,-1.55 -5.274,-1.824 -5.274,-1.824 0,0 -1.003,3.752 1.959,6.053 2.969,2.298 5.378,3.186 5.378,3.186 z" />
          <path
             style="fill:#c49f06"
             inkscape:connector-curvature="0"
             id="path49"
             d="m 553.756,47.592 c 0,0 0.066,-5.874 -2.067,-7.414 -2.125,-1.545 -5.269,-1.816 -5.269,-1.816 0,0 -1.01,3.753 1.96,6.056 2.966,2.289 5.376,3.174 5.376,3.174 z" />
          <path
             style="fill:#c49f06"
             inkscape:connector-curvature="0"
             id="path51"
             d="m 544.877,44.773 c 0,0 0.062,-5.872 -2.066,-7.417 -2.125,-1.551 -5.269,-1.822 -5.269,-1.822 0,0 -1.016,3.761 1.953,6.056 2.976,2.304 5.382,3.183 5.382,3.183 z" />
          <path
             style="fill:#c49f06"
             inkscape:connector-curvature="0"
             id="path53"
             d="m 536.952,42.034 c 0,0 0.062,-5.877 -2.062,-7.425 -2.134,-1.537 -5.278,-1.819 -5.278,-1.819 0,0 -1.006,3.765 1.959,6.059 2.96,2.292 5.381,3.185 5.381,3.185 z" />
          <path
             style="fill:#c49f06"
             inkscape:connector-curvature="0"
             id="path55"
             d="m 528.703,39.271 c 0,0 0.058,-5.875 -2.064,-7.426 -2.129,-1.548 -5.271,-1.816 -5.271,-1.816 0,0 -1.009,3.756 1.964,6.053 2.956,2.297 5.371,3.189 5.371,3.189 z" />
          <path
             style="fill:#c49f06"
             inkscape:connector-curvature="0"
             id="path57"
             d="m 519.335,36.563 c 0,0 0.063,-5.883 -2.07,-7.422 -2.124,-1.539 -5.269,-1.822 -5.269,-1.822 0,0 -1.009,3.761 1.955,6.062 2.968,2.294 5.384,3.182 5.384,3.182 z" />
          <path
             style="fill:#c49f06"
             inkscape:connector-curvature="0"
             id="path59"
             d="m 510.227,34.526 c 0,0 0.057,-5.875 -2.068,-7.426 -2.129,-1.539 -5.269,-1.813 -5.269,-1.813 0,0 -1.006,3.75 1.958,6.056 2.967,2.298 5.379,3.183 5.379,3.183 z" />
          <path
             style="fill:#c49f06"
             inkscape:connector-curvature="0"
             id="path61"
             d="m 500.391,31.626 c 0,0 0.063,-5.878 -2.062,-7.423 -2.129,-1.545 -5.284,-1.816 -5.284,-1.816 0,0 -1,3.756 1.97,6.053 2.965,2.298 5.376,3.186 5.376,3.186 z" />
          <path
             style="fill:#c49f06"
             inkscape:connector-curvature="0"
             id="path63"
             d="m 491.017,28.924 c 0,0 0.069,-5.877 -2.059,-7.417 -2.129,-1.547 -5.274,-1.825 -5.274,-1.825 0,0 -1.009,3.756 1.961,6.054 2.967,2.298 5.372,3.188 5.372,3.188 z" />
          <path
             style="fill:#c49f06"
             inkscape:connector-curvature="0"
             id="path65"
             d="m 482.155,27.864 c 0,0 0.058,-5.88 -2.062,-7.425 -2.131,-1.537 -5.276,-1.816 -5.276,-1.816 0,0 -1.009,3.765 1.961,6.057 2.967,2.291 5.377,3.184 5.377,3.184 z" />
          <path
             style="fill:#c49f06"
             inkscape:connector-curvature="0"
             id="path67"
             d="m 472.967,26.46 c 0,0 -0.588,-5.849 -2.875,-7.148 -2.285,-1.297 -5.444,-1.226 -5.444,-1.226 0,0 -0.576,3.849 2.62,5.794 3.205,1.964 5.699,2.58 5.699,2.58 z" />
          <path
             style="fill:#c49f06"
             inkscape:connector-curvature="0"
             id="path69"
             d="m 455.942,27.282 c 0,0 -0.582,-5.854 -2.872,-7.154 -2.292,-1.292 -5.441,-1.226 -5.441,-1.226 0,0 -0.582,3.849 2.611,5.806 3.21,1.951 5.702,2.574 5.702,2.574 z" />
          <path
             style="fill:#c49f06"
             inkscape:connector-curvature="0"
             id="path71"
             d="m 447.992,28.686 c 0,0 -0.586,-5.849 -2.878,-7.14 -2.279,-1.297 -5.441,-1.228 -5.441,-1.228 0,0 -0.585,3.848 2.617,5.808 3.206,1.945 5.702,2.56 5.702,2.56 z" />
          <path
             style="fill:#c49f06"
             inkscape:connector-curvature="0"
             id="path73"
             d="m 464.631,26.722 c 0,0 -0.588,-5.84 -2.878,-7.148 -2.286,-1.297 -5.442,-1.219 -5.442,-1.219 0,0 -0.585,3.84 2.618,5.797 3.204,1.948 5.702,2.57 5.702,2.57 z" />
          <path
             style="fill:#c49f06"
             inkscape:connector-curvature="0"
             id="path75"
             d="m 440.598,29.034 c 0,0 -0.585,-5.845 -2.874,-7.146 -2.276,-1.302 -5.433,-1.225 -5.433,-1.225 0,0 -0.583,3.846 2.616,5.799 3.203,1.953 5.691,2.572 5.691,2.572 z" />
          <path
             style="fill:#c49f06"
             inkscape:connector-curvature="0"
             id="path77"
             d="m 563.755,37.517 c 0,0 -4.762,-3.447 -7.252,-2.603 -2.488,0.842 -4.535,3.254 -4.535,3.254 0,0 2.487,2.995 6.073,1.897 3.596,-1.097 5.714,-2.548 5.714,-2.548 z" />
          <path
             style="fill:#c49f06"
             inkscape:connector-curvature="0"
             id="path79"
             d="m 555.558,34.119 c 0,0 -4.763,-3.45 -7.253,-2.603 -2.491,0.842 -4.525,3.249 -4.525,3.249 0,0 2.483,2.986 6.07,1.9 3.588,-1.099 5.708,-2.546 5.708,-2.546 z" />
          <path
             style="fill:#c49f06"
             inkscape:connector-curvature="0"
             id="path81"
             d="m 547.048,30.677 c 0,0 -4.759,-3.439 -7.252,-2.594 -2.482,0.841 -4.526,3.25 -4.526,3.25 0,0 2.484,3.001 6.073,1.909 3.584,-1.103 5.705,-2.565 5.705,-2.565 z" />
          <path
             style="fill:#c49f06"
             inkscape:connector-curvature="0"
             id="path83"
             d="m 538.545,27.247 c 0,0 -4.769,-3.445 -7.255,-2.594 -2.483,0.839 -4.532,3.249 -4.532,3.249 0,0 2.49,2.998 6.076,1.903 3.583,-1.099 5.711,-2.558 5.711,-2.558 z" />
          <path
             style="fill:#c49f06"
             inkscape:connector-curvature="0"
             id="path85"
             d="m 530.035,23.823 c 0,0 -4.768,-3.445 -7.257,-2.6 -2.489,0.851 -4.533,3.257 -4.533,3.257 0,0 2.49,2.983 6.079,1.891 3.59,-1.098 5.711,-2.548 5.711,-2.548 z" />
          <path
             style="fill:#c49f06"
             inkscape:connector-curvature="0"
             id="path87"
             d="m 520.852,20.958 c 0,0 -4.763,-3.436 -7.253,-2.6 -2.491,0.851 -4.531,3.254 -4.531,3.254 0,0 2.488,3.001 6.073,1.9 3.588,-1.096 5.711,-2.554 5.711,-2.554 z" />
          <path
             style="fill:#c49f06"
             inkscape:connector-curvature="0"
             id="path89"
             d="m 511.769,18.614 c 0,0 -4.762,-3.45 -7.256,-2.609 -2.487,0.842 -4.528,3.252 -4.528,3.252 0,0 2.487,2.989 6.073,1.902 3.59,-1.101 5.711,-2.545 5.711,-2.545 z" />
          <path
             style="fill:#c49f06"
             inkscape:connector-curvature="0"
             id="path91"
             d="m 502.688,16.253 c 0,0 -4.766,-3.457 -7.249,-2.603 -2.495,0.841 -4.529,3.251 -4.529,3.251 0,0 2.487,2.989 6.073,1.893 3.586,-1.093 5.705,-2.541 5.705,-2.541 z" />
          <path
             style="fill:#c49f06"
             inkscape:connector-curvature="0"
             id="path93"
             d="m 493.236,14.5 c 0,0 -4.756,-3.451 -7.246,-2.603 -2.492,0.841 -4.529,3.263 -4.529,3.263 0,0 2.484,2.989 6.073,1.885 3.583,-1.086 5.702,-2.545 5.702,-2.545 z" />
          <path
             style="fill:#c49f06"
             inkscape:connector-curvature="0"
             id="path95"
             d="m 483.083,12.563 c 0,0 -5.005,-3.073 -7.431,-2.043 -2.418,1.043 -4.271,3.598 -4.271,3.598 0,0 2.706,2.793 6.197,1.427 3.499,-1.37 5.505,-2.982 5.505,-2.982 z" />
          <path
             style="fill:#c49f06"
             inkscape:connector-curvature="0"
             id="path97"
             d="m 472.401,10.367 c 0,0 -5.68,-1.487 -7.694,0.205 -2.012,1.694 -3.046,4.675 -3.046,4.675 0,0 3.397,1.882 6.347,-0.441 2.951,-2.312 4.393,-4.439 4.393,-4.439 z" />
          <path
             style="fill:#c49f06"
             inkscape:connector-curvature="0"
             id="path99"
             d="m 463.091,10.866 c 0,0 -5.69,-1.484 -7.705,0.207 -2.009,1.689 -3.042,4.679 -3.042,4.679 0,0 3.401,1.885 6.349,-0.438 2.945,-2.318 4.398,-4.448 4.398,-4.448 z" />
          <path
             style="fill:#c49f06"
             inkscape:connector-curvature="0"
             id="path101"
             d="m 453.774,11.367 c 0,0 -5.693,-1.484 -7.708,0.21 -2.012,1.686 -3.041,4.667 -3.041,4.667 0,0 3.404,1.9 6.348,-0.438 2.954,-2.311 4.401,-4.439 4.401,-4.439 z" />
          <path
             style="fill:#c49f06"
             inkscape:connector-curvature="0"
             id="path103"
             d="m 443.432,13.391 c 0,0 -5.725,-1.317 -7.691,0.438 -1.953,1.75 -2.898,4.762 -2.898,4.762 0,0 3.461,1.785 6.338,-0.625 2.874,-2.411 4.251,-4.575 4.251,-4.575 z" />
        </g>
      </g>
    </g>
  </g>
</svg>
