<?xml version="1.0" encoding="UTF-8" standalone="no"?>
<!-- Created with Inkscape (http://www.inkscape.org/) --><svg height="48" id="svg2" inkscape:output_extension="org.inkscape.output.svg.inkscape" inkscape:version="0.45" sodipodi:docbase="/home/dobey/Projects/gnome-icon-theme/scalable/actions" sodipodi:docname="help-about.svg" sodipodi:version="0.32" version="1.0" width="48" xmlns="http://www.w3.org/2000/svg" xmlns:cc="http://web.resource.org/cc/" xmlns:dc="http://purl.org/dc/elements/1.1/" xmlns:inkscape="http://www.inkscape.org/namespaces/inkscape" xmlns:rdf="http://www.w3.org/1999/02/22-rdf-syntax-ns#" xmlns:sodipodi="http://sodipodi.sourceforge.net/DTD/sodipodi-0.dtd" xmlns:svg="http://www.w3.org/2000/svg" xmlns:xlink="http://www.w3.org/1999/xlink">
  <metadata>
    <rdf:RDF xmlns:cc="http://web.resource.org/cc/" xmlns:dc="http://purl.org/dc/elements/1.1/" xmlns:rdf="http://www.w3.org/1999/02/22-rdf-syntax-ns#">
      <cc:Work rdf:about="">
        <dc:title></dc:title>
        <dc:description></dc:description>
        <dc:subject>
          <rdf:Bag>
            <rdf:li>unsorted</rdf:li>
          </rdf:Bag>
        </dc:subject>
        <dc:publisher>
          <cc:Agent rdf:about="http://www.openclipart.org/">
            <dc:title>Open Clip Art Library, Source: GNOME Icon Theme, Source: GNOME Icon Theme, Source: GNOME Icon Theme, Source: GNOME Icon Theme</dc:title>
          </cc:Agent>
        </dc:publisher>
        <dc:creator>
          <cc:Agent>
            <dc:title></dc:title>
          </cc:Agent>
        </dc:creator>
        <dc:rights>
          <cc:Agent>
            <dc:title></dc:title>
          </cc:Agent>
        </dc:rights>
        <dc:date></dc:date>
        <dc:format>image/svg+xml</dc:format>
        <dc:type rdf:resource="http://purl.org/dc/dcmitype/StillImage"/>
        <cc:license rdf:resource="http://creativecommons.org/licenses/GPL/2.0/"/>
        <dc:language>en</dc:language>
      </cc:Work>
    </rdf:RDF>
  </metadata>
  <defs id="defs4">
    <linearGradient id="linearGradient5612" inkscape:collect="always">
      <stop id="stop5614" offset="0" style="stop-color:#ffffff;stop-opacity:1;"/>
      <stop id="stop5616" offset="1" style="stop-color:#ffffff;stop-opacity:0;"/>
    </linearGradient>
    <linearGradient id="linearGradient5602" inkscape:collect="always">
      <stop id="stop5604" offset="0" style="stop-color:#000000;stop-opacity:1;"/>
      <stop id="stop5606" offset="1" style="stop-color:#000000;stop-opacity:0;"/>
    </linearGradient>
    <linearGradient id="linearGradient5420" inkscape:collect="always">
      <stop id="stop5422" offset="0" style="stop-color:#000000;stop-opacity:1;"/>
      <stop id="stop5424" offset="1" style="stop-color:#000000;stop-opacity:0;"/>
    </linearGradient>
    <linearGradient id="linearGradient5211" inkscape:collect="always">
      <stop id="stop5213" offset="0" style="stop-color:#ffffff;stop-opacity:1;"/>
      <stop id="stop5215" offset="1" style="stop-color:#ffffff;stop-opacity:0;"/>
    </linearGradient>
    <linearGradient id="linearGradient5195">
      <stop id="stop5199" offset="0" style="stop-color:#fef6b3;stop-opacity:1;"/>
      <stop id="stop5205" offset="0.58336526" style="stop-color:#dbc40b;stop-opacity:1"/>
      <stop id="stop5197" offset="1" style="stop-color:#fff48f;stop-opacity:1;"/>
    </linearGradient>
    <radialGradient cx="7.9549513" cy="5.9379601" fx="7.9549513" fy="5.9379601" gradientTransform="matrix(1.1423045,-1.6676192e-2,1.6800771e-2,1.1502023,-1.2317879,-0.2320481)" gradientUnits="userSpaceOnUse" id="radialGradient5209" inkscape:collect="always" r="7.6684914" xlink:href="#linearGradient5195"/>
    <radialGradient cx="11" cy="18.125" fx="11" fy="18.125" gradientTransform="matrix(1,0,0,0.5,0,9.0625)" gradientUnits="userSpaceOnUse" id="radialGradient5426" inkscape:collect="always" r="5.25" xlink:href="#linearGradient5420"/>
    <filter height="1.7807229" id="filter5532" inkscape:collect="always" width="1.3903614" x="-0.19518071" y="-0.39036146">
      <feGaussianBlur id="feGaussianBlur5534" inkscape:collect="always" stdDeviation="0.85391566"/>
    </filter>
    <radialGradient cx="7.953125" cy="4.8580775" fx="7.953125" fy="4.8580775" gradientTransform="matrix(6.9295508,0,0,6.9020787,-30.92846,-27.878578)" gradientUnits="userSpaceOnUse" id="radialGradient5536" inkscape:collect="always" r="5.734375" xlink:href="#linearGradient5211"/>
    <radialGradient cx="11" cy="18.125" fx="11" fy="18.125" gradientTransform="matrix(1,0,0,0.5,0,9.0625)" gradientUnits="userSpaceOnUse" id="radialGradient5576" inkscape:collect="always" r="5.25" xlink:href="#linearGradient5420"/>
    <linearGradient gradientUnits="userSpaceOnUse" id="linearGradient5608" inkscape:collect="always" x1="24.25" x2="31.75" xlink:href="#linearGradient5602" y1="21.4375" y2="29.3125"/>
    <radialGradient cx="23.864853" cy="17.512705" fx="23.864853" fy="17.512705" gradientTransform="matrix(1,0,0,1.017094,0,-0.394436)" gradientUnits="userSpaceOnUse" id="radialGradient5618" inkscape:collect="always" r="20.682873" xlink:href="#linearGradient5612"/>
  </defs>
  <sodipodi:namedview bordercolor="#e5e5e5" borderlayer="true" borderopacity="1" gridtolerance="10000" guidetolerance="10" height="48px" id="base" inkscape:current-layer="layer1" inkscape:cx="59.635641" inkscape:cy="20.659126" inkscape:document-units="px" inkscape:pageopacity="0.0" inkscape:pageshadow="2" inkscape:showpageshadow="false" inkscape:window-height="636" inkscape:window-width="734" inkscape:window-x="465" inkscape:window-y="403" inkscape:zoom="1" objecttolerance="10" pagecolor="#ffffff" width="48px">
    <inkscape:grid id="grid4598" type="xygrid"/>
  </sodipodi:namedview>
  <g id="layer1" inkscape:groupmode="layer" inkscape:label="Layer 1">
    <path d="M 16.25,18.125 A 5.25,2.625 0 1 1 5.75,18.125 A 5.25,2.625 0 1 1 16.25,18.125 z" id="path5574" sodipodi:cx="11" sodipodi:cy="18.125" sodipodi:rx="5.25" sodipodi:ry="2.625" sodipodi:type="arc" style="opacity:0.1746988;color:#000000;fill:url(#radialGradient5576);fill-opacity:1;fill-rule:nonzero;stroke:none;stroke-width:1px;stroke-linecap:butt;stroke-linejoin:miter;marker:none;marker-start:none;marker-mid:none;marker-end:none;stroke-miterlimit:4;stroke-dasharray:none;stroke-dashoffset:0;stroke-opacity:1;visibility:visible;display:inline;overflow:visible;filter:url(#filter5532);enable-background:accumulate" transform="matrix(2.2214006,0,0,1.5858195,-1.1453707,13.786879)"/>
    <path d="M 16.25,18.125 A 5.25,2.625 0 1 1 5.75,18.125 A 5.25,2.625 0 1 1 16.25,18.125 z" id="path5418" sodipodi:cx="11" sodipodi:cy="18.125" sodipodi:rx="5.25" sodipodi:ry="2.625" sodipodi:type="arc" style="opacity:0.1746988;color:#000000;fill:url(#radialGradient5426);fill-opacity:1;fill-rule:nonzero;stroke:none;stroke-width:1px;stroke-linecap:butt;stroke-linejoin:miter;marker:none;marker-start:none;marker-mid:none;marker-end:none;stroke-miterlimit:4;stroke-dasharray:none;stroke-dashoffset:0;stroke-opacity:1;visibility:visible;display:inline;overflow:visible;filter:url(#filter5532);enable-background:accumulate" transform="matrix(4.0891211,0,0,2.9191528,-21.940296,-13.379788)"/>
    <path d="M 7.9549515,15.20505 C 7.2188725,15.20505 6.0822239,10.958749 5.5617374,10.438263 C 5.0412509,9.9177761 0.79494952,8.7811279 0.79494953,8.0450489 C 0.79494954,7.3089699 5.041251,6.1723213 5.5617374,5.6518348 C 6.0822239,5.1313484 7.2188721,0.88504695 7.9549511,0.88504696 C 8.6910301,0.88504697 9.8276787,5.1313484 10.348165,5.6518349 C 10.868652,6.1723213 15.114953,7.3089695 15.114953,8.0450485 C 15.114953,8.7811275 10.868652,9.9177761 10.348165,10.438263 C 9.8276787,10.958749 8.6910305,15.20505 7.9549515,15.20505 z" id="path4596" inkscape:flatsided="false" inkscape:randomized="0" inkscape:rounded="0.13800197" sodipodi:arg1="1.5707963" sodipodi:arg2="2.3561945" sodipodi:cx="7.9549513" sodipodi:cy="8.0450487" sodipodi:r1="7.1600018" sodipodi:r2="3.3845155" sodipodi:sides="4" sodipodi:type="star" style="opacity:1;color:#000000;fill:url(#radialGradient5209);fill-opacity:1;fill-rule:nonzero;stroke:#c4a000;stroke-width:0.33092383px;stroke-linecap:butt;stroke-linejoin:miter;marker:none;marker-start:none;marker-mid:none;marker-end:none;stroke-miterlimit:4;stroke-dasharray:none;stroke-dashoffset:0;stroke-opacity:1;visibility:visible;display:inline;overflow:visible;enable-background:accumulate" transform="matrix(3.02199,0,0,3.0216964,0.2023348,-1.1563417)"/>
    <path d="M 24.244895,2.5142868 C 23.853853,3.4173764 23.510704,3.3892395 23.094766,4.4426879 C 22.2055,6.6949522 21.18946,8.8166342 20.345329,10.881223 C 19.923265,11.913519 19.684219,13.051265 19.262269,13.896623 C 18.840316,14.741982 18.692732,15.674006 17.696885,16.665908 C 16.693616,17.665199 15.768174,17.80774 14.916578,18.225082 C 14.064981,18.642428 12.926676,18.889423 11.889177,19.303852 C 9.81418,20.132711 7.5582864,21.04465 5.2969717,21.914856 C 4.2898709,22.302414 4.3601866,22.69888 3.488937,23.0649 C 4.3956208,23.454391 4.3673723,23.796183 5.4250132,24.210471 C 7.6862423,25.096214 9.8163682,26.108225 11.889177,26.949007 C 12.925581,27.369399 14.067854,27.607497 14.916578,28.027774 C 15.765301,28.448052 16.701035,28.595052 17.696885,29.586951 C 18.692735,30.578853 18.840314,31.510878 19.262269,32.356237 C 19.684219,33.201597 19.923263,34.339343 20.345329,35.371636 C 21.18946,37.436227 22.2055,39.557906 23.094766,41.810172 C 23.510704,42.863619 23.853853,42.835483 24.244895,43.738574 C 24.612372,42.87078 25.01042,42.940811 25.399519,41.937707 C 26.273189,39.685355 27.188756,37.438404 28.020914,35.371636 C 28.436994,34.338249 28.684971,33.204455 29.103975,32.356237 C 29.522984,31.508017 29.666088,30.586246 30.669358,29.586951 C 31.665208,28.595048 32.600942,28.448052 33.449666,28.027774 C 34.29839,27.607497 35.440665,27.369399 36.477067,26.949007 C 38.549876,26.108225 40.680003,25.096214 42.94123,24.210471 C 43.998871,23.796183 43.970623,23.454391 44.877306,23.0649 C 44.006059,22.69888 44.076371,22.302414 43.069272,21.914856 C 40.807957,21.04465 38.552061,20.132711 36.477067,19.303852 C 35.43957,18.889423 34.30126,18.642428 33.449666,18.225082 C 32.598069,17.80774 31.672628,17.665199 30.669358,16.665908 C 29.666092,15.666616 29.522982,14.744843 29.103975,13.896623 C 28.684971,13.048404 28.436994,11.914609 28.020914,10.881223 C 27.188756,8.8144543 26.273189,6.5675037 25.399519,4.3151538 C 25.01042,3.3120456 24.612372,3.3820825 24.244895,2.5142868 z" id="path5207" sodipodi:nodetypes="cssssssscssssssscssssssscsssssssc" style="color:#000000;fill:none;fill-opacity:1;fill-rule:nonzero;stroke:url(#radialGradient5536);stroke-width:0.99999994;stroke-linecap:round;stroke-linejoin:round;marker:none;marker-start:none;marker-mid:none;marker-end:none;stroke-miterlimit:4;stroke-dasharray:none;stroke-dashoffset:0;stroke-opacity:1;visibility:visible;display:inline;overflow:visible;enable-background:accumulate"/>
    <path d="M 3,23.125 L 17.125,16.875 L 24.125,1.9999999 L 31.125,16.375 L 44.875,23 L 24.25,22.875 L 3,23.125 z" id="path5596" sodipodi:nodetypes="ccccccc" style="opacity:0.22289157;color:#000000;fill:#ffffff;fill-opacity:1;fill-rule:nonzero;stroke:none;stroke-width:1;stroke-linecap:round;stroke-linejoin:round;marker:none;marker-start:none;marker-mid:none;marker-end:none;stroke-miterlimit:4;stroke-dasharray:none;stroke-dashoffset:0;stroke-opacity:1;visibility:visible;display:inline;overflow:visible;enable-background:accumulate"/>
    <path d="M 3,23.125 L 17.125,16.875 L 24.125,1.9999999 L 24.3125,22.6875 L 3,23.125 z" id="path5598" sodipodi:nodetypes="ccccc" style="opacity:0.41566265;color:#000000;fill:#ffffff;fill-opacity:1;fill-rule:nonzero;stroke:none;stroke-width:1;stroke-linecap:round;stroke-linejoin:round;marker:none;marker-start:none;marker-mid:none;marker-end:none;stroke-miterlimit:4;stroke-dasharray:none;stroke-dashoffset:0;stroke-opacity:1;visibility:visible;display:inline;overflow:visible;enable-background:accumulate"/>
    <path d="M 24.375,44.375 L 24.25,22.75 L 45.25,22.75 L 31.125,30 L 24.375,44.375 z" id="path5600" style="opacity:0.07228916000000001;color:#000000;fill:url(#linearGradient5608);fill-opacity:1;fill-rule:nonzero;stroke:none;stroke-width:1;stroke-linecap:round;stroke-linejoin:round;marker:none;marker-start:none;marker-mid:none;marker-end:none;stroke-miterlimit:4;stroke-dasharray:none;stroke-dashoffset:0;stroke-opacity:1;visibility:visible;display:inline;overflow:visible;enable-background:accumulate"/>
    <path d="M 24.041631,2.0380592 L 23.511301,22.190602 L 3.1819805,23.074486 L 23.157747,23.958369 L 23.864854,44.110913 L 24.925514,24.135146 L 44.547727,23.074486 L 24.571961,22.013826 L 24.041631,2.0380592 z" id="path5610" style="opacity:1;color:#000000;fill:url(#radialGradient5618);fill-opacity:1;fill-rule:nonzero;stroke:none;stroke-width:1;stroke-linecap:round;stroke-linejoin:round;marker:none;marker-start:none;marker-mid:none;marker-end:none;stroke-miterlimit:4;stroke-dasharray:none;stroke-dashoffset:0;stroke-opacity:1;visibility:visible;display:inline;overflow:visible;enable-background:accumulate"/>
  </g>
</svg>
