<?xml version="1.0" encoding="UTF-8" standalone="no"?>
<!-- Created with Inkscape (http://www.inkscape.org/) -->

<svg
   xmlns:dc="http://purl.org/dc/elements/1.1/"
   xmlns:cc="http://creativecommons.org/ns#"
   xmlns:rdf="http://www.w3.org/1999/02/22-rdf-syntax-ns#"
   xmlns:svg="http://www.w3.org/2000/svg"
   xmlns="http://www.w3.org/2000/svg"
   xmlns:sodipodi="http://sodipodi.sourceforge.net/DTD/sodipodi-0.dtd"
   xmlns:inkscape="http://www.inkscape.org/namespaces/inkscape"
   width="256"
   height="256"
   id="svg3711"
   version="1.1"
   inkscape:version="0.48.1 "
   sodipodi:docname="New document 4">
  <defs
     id="defs3713" />
  <sodipodi:namedview
     id="base"
     pagecolor="#ffffff"
     bordercolor="#666666"
     borderopacity="1.0"
     inkscape:pageopacity="0.0"
     inkscape:pageshadow="2"
     inkscape:zoom="0.98994949"
     inkscape:cx="127.6738"
     inkscape:cy="139.01062"
     inkscape:document-units="px"
     inkscape:current-layer="layer1"
     showgrid="false"
     inkscape:window-width="1214"
     inkscape:window-height="822"
     inkscape:window-x="22"
     inkscape:window-y="22"
     inkscape:window-maximized="0" />
  <metadata
     id="metadata3716">
    <rdf:RDF>
      <cc:Work
         rdf:about="">
        <dc:format>image/svg+xml</dc:format>
        <dc:type
           rdf:resource="http://purl.org/dc/dcmitype/StillImage" />
        <dc:title></dc:title>
      </cc:Work>
    </rdf:RDF>
  </metadata>
  <g
     inkscape:label="Layer 1"
     inkscape:groupmode="layer"
     id="layer1"
     transform="translate(0,-796.36218)">
    <g
       id="g303"
       transform="matrix(3.803426,0,0,3.803426,-1358.8021,772.62891)">
      <path
         style="fill:#5c8727"
         inkscape:connector-curvature="0"
         id="path305"
         d="m 367.072,27.166 c 0,0 5.293,-3.279 -0.527,-8.253 -5.819,-4.976 -11.431,-8.467 -11.431,-8.467 l 1.484,-2.01 c 0,0 11.64,7.197 11.853,7.512 0.211,0.32 7.621,4.446 7.621,4.446 l -2.963,6.458 -6.037,0.314 z" />
      <g
         id="g307">
        <path
           style="fill:#5c8727;stroke:#b4cc95;stroke-width:1.18069994;stroke-linecap:round;stroke-linejoin:round"
           inkscape:connector-curvature="0"
           id="path309"
           d="m 390.569,14.025 c 0,0 2.026,-0.747 4.695,-0.428 2.669,0.321 4.376,0.428 5.125,1.067 0.744,0.642 5.655,2.882 5.655,2.882 0,0 1.282,1.068 1.493,1.708 0.213,0.641 0.213,2.348 0.213,2.348 l -8.11,1.603 -9.071,-9.18 z" />
        <path
           style="fill:#5c8727;stroke:#b4cc95;stroke-width:1.18069994;stroke-linecap:round;stroke-linejoin:round"
           inkscape:connector-curvature="0"
           id="path311"
           d="m 411.171,57.9 c 0,0 3.308,2.243 3.734,4.482 0.428,2.24 0.854,5.658 0.214,6.402 -0.641,0.749 -3.628,1.603 -5.765,0.214 -2.134,-1.384 -0.534,-5.76 -0.534,-5.76 l 2.351,-5.338 z" />
        <path
           style="fill:#5c8727;stroke:#b4cc95;stroke-width:1.18069994;stroke-linecap:round;stroke-linejoin:round"
           inkscape:connector-curvature="0"
           id="path313"
           d="m 389.608,66.758 c 0,0 1.494,4.482 4.267,4.912 2.779,0.424 6.407,1.066 6.941,0.533 0.53,-0.533 1.387,-2.456 1.066,-3.096 -0.32,-0.641 -4.27,-3.203 -5.229,-3.949 -0.964,-0.75 -2.883,-2.992 -2.883,-2.992 l -4.162,4.592 z" />
        <path
           style="fill:#5c8727;stroke:#b4cc95;stroke-width:1.18069994;stroke-linecap:round;stroke-linejoin:round"
           inkscape:connector-curvature="0"
           id="path315"
           d="m 407.112,52.028 c 0,0 2.99,3.629 3.418,5.872 0.427,2.243 2.026,9.605 0,10.994 -2.028,1.387 -5.658,1.28 -6.404,1.173 -0.75,-0.106 -0.854,-0.854 -3.416,-1.6 -2.562,-0.749 -6.938,-6.301 -6.938,-6.301 l 3.629,-6.405 6.402,-5.014 3.309,1.281 z" />
        <path
           style="fill:#5c8727;stroke:#b4cc95;stroke-width:1.18069994;stroke-linecap:round;stroke-linejoin:round"
           inkscape:connector-curvature="0"
           id="path317"
           d="m 417.468,41.673 c 0,0 3.203,3.096 4.379,5.445 1.171,2.347 1.493,7.256 1.067,7.684 -0.427,0.428 -3.31,-0.64 -4.376,-1.813 -1.07,-1.174 -2.882,-8.541 -2.882,-8.541 l 1.812,-2.775 z" />
        <path
           style="fill:#5c8727;stroke:#b4cc95;stroke-width:1.18069994;stroke-linecap:round;stroke-linejoin:round"
           inkscape:connector-curvature="0"
           id="path319"
           d="m 417.362,45.407 c 0,0 4.484,9.075 3.842,12.81 -0.644,3.738 -0.644,4.378 -0.644,4.378 l -3.734,2.137 c 0,0 -2.56,-0.749 -3.841,-1.177 -1.282,-0.426 -7.473,-11.74 -7.473,-11.74 l -0.64,-1.815 12.49,-4.593 z" />
        <path
           style="fill:#5c8727;stroke:#b4cc95;stroke-width:1.18069994;stroke-linecap:round;stroke-linejoin:round"
           inkscape:connector-curvature="0"
           id="path321"
           d="m 414.796,32.278 c 0,0 9.034,8.491 0.86,15.693 -4.485,3.949 -10.037,2.562 -10.037,2.562 l -0.427,-12.81 9.604,-5.445 z" />
        <path
           style="fill:#5c8727;stroke:#b4cc95;stroke-width:1.18069994;stroke-linecap:round;stroke-linejoin:round"
           inkscape:connector-curvature="0"
           id="path323"
           d="m 388.007,52.349 c 0,0 1.814,5.655 3.201,7.151 1.388,1.493 3.736,3.095 5.872,2.455 2.134,-0.643 2.026,-6.726 1.389,-9.606 -0.642,-2.884 -10.462,0 -10.462,0 z" />
        <path
           style="fill:#5c8727;stroke:#b4cc95;stroke-width:1.18069994;stroke-linecap:round;stroke-linejoin:round"
           inkscape:connector-curvature="0"
           id="path325"
           d="m 397.827,21.39 c 0,0 10.354,-1.173 11.527,-0.854 1.176,0.32 5.979,1.71 6.619,6.297 0.639,4.59 -2.348,7.261 -2.348,7.261 0,0 -3.096,3.202 -4.912,3.308 -1.815,0.108 -4.588,-0.748 -4.588,-0.748 L 397.827,21.39 z" />
        <path
           style="fill:#5c8727;stroke:#b4cc95;stroke-width:1.18069994;stroke-linecap:round;stroke-linejoin:round"
           inkscape:connector-curvature="0"
           id="path327"
           d="m 386.403,48.72 c 0,0 6.728,11.637 16.333,4.802 9.61,-6.831 6.618,-12.169 3.095,-18.574 -3.521,-6.404 -6.081,-5.443 -6.081,-5.443 l -14.626,1.601 -1.39,12.062 2.669,5.552 z" />
        <path
           style="fill:#5c8727;stroke:#b4cc95;stroke-width:1.18069994;stroke-linecap:round;stroke-linejoin:round"
           inkscape:connector-curvature="0"
           id="path329"
           d="m 364.309,38.792 c 0,0 -0.644,6.831 0.853,9.18 1.493,2.347 3.31,4.377 6.939,3.843 3.629,-0.535 -0.213,-15.585 -0.213,-15.585 l -7.579,2.562 z" />
        <path
           style="fill:#5c8727;stroke:#b4cc95;stroke-width:1.18069994;stroke-linecap:round;stroke-linejoin:round"
           inkscape:connector-curvature="0"
           id="path331"
           d="m 369.644,39.43 c 0,0 -0.213,10.57 1.604,13.131 1.816,2.563 7.792,3.63 7.792,3.63 l 0.853,-12.597 -10.249,-4.164 z" />
        <path
           style="fill:#5c8727;stroke:#b4cc95;stroke-width:1.18069994;stroke-linecap:round;stroke-linejoin:round"
           inkscape:connector-curvature="0"
           id="path333"
           d="m 376.583,46.796 c 0,0 -1.281,9.287 -0.21,11.634 1.065,2.353 1.705,3.952 4.904,5.553 3.206,1.602 5.022,2.029 6.619,2.139 1.604,0.104 2.562,0.53 3.521,-0.109 0.964,-0.641 2.886,-3.203 2.457,-5.869 -0.427,-2.67 -6.188,-11.959 -6.188,-11.959 l -11.103,-1.389 z" />
        <path
           style="fill:#5c8727;stroke:#b4cc95;stroke-width:1.18069994;stroke-linecap:round;stroke-linejoin:round"
           inkscape:connector-curvature="0"
           id="path335"
           d="m 370.284,37.617 c 0,0 0.643,5.124 3.735,8.967 3.096,3.841 5.553,4.803 7.686,5.336 2.138,0.533 7.475,0.429 7.475,0.429 0,0 1.923,-10.354 -1.069,-16.333 -2.986,-5.978 -4.479,-8.434 -4.479,-8.434 l -8.436,0.641 -4.912,9.394 z" />
        <path
           style="fill:#5c8727;stroke:#b4cc95;stroke-width:1.18069994;stroke-linecap:round;stroke-linejoin:round"
           inkscape:connector-curvature="0"
           id="path337"
           d="m 385.015,13.383 7.051,-0.105 1.92,1.281 1.918,1.708 c 0,0 0.641,-0.108 1.39,0.32 0.744,0.426 1.813,0.64 2.561,1.814 0.749,1.174 1.709,2.028 2.562,3.31 0.855,1.281 2.672,3.736 2.672,3.736 h 0.64 c 0,0 1.92,1.601 1.92,2.029 0,0.425 0.534,2.562 -0.214,3.094 -0.748,0.535 -2.346,2.135 -2.346,2.135 0,0 -2.455,2.777 -10.144,2.456 -7.686,-0.32 -11.634,-4.591 -11.634,-4.591 l -2.775,-2.988 4.479,-14.199 z" />
        <path
           style="fill:#5c8727;stroke:#b4cc95;stroke-width:1.18069994;stroke-linecap:round;stroke-linejoin:round"
           inkscape:connector-curvature="0"
           id="path339"
           d="m 370.392,24.166 c 0,0 -9.072,0 -9.609,7.045 -0.532,7.046 3.206,10.036 3.206,10.036 l 8.858,0.426 c 0,0 4.379,-4.163 4.699,-7.686 0.32,-3.523 -0.537,-8.967 -7.154,-9.821 z" />
        <path
           style="fill:#5c8727;stroke:#b4cc95;stroke-width:1.18069994;stroke-linecap:round;stroke-linejoin:round"
           inkscape:connector-curvature="0"
           id="path341"
           d="m 374.34,20.536 c 0,0 -1.173,-3.843 -0.746,-5.229 0.426,-1.389 1.919,-3.417 4.165,-5.126 2.242,-1.706 4.694,-2.453 6.084,-2.346 1.388,0.107 3.096,0.212 3.096,0.212 0,0 0.854,4.269 0.748,5.231 -0.107,0.961 -6.622,5.977 -6.622,5.977 l -6.725,1.281 z" />
        <g
           id="g343">
          <path
             style="fill:#5c8727;stroke:#b4cc95;stroke-width:1.18069994;stroke-linecap:round;stroke-linejoin:round"
             inkscape:connector-curvature="0"
             id="path345"
             d="m 373.594,19.362 c 0,0 3.204,-4.484 5.445,-4.803 2.238,-0.319 7.475,0 7.475,0 l 2.986,3.736 c 0,0 -0.214,4.804 -1.39,6.404 -1.172,1.602 -0.852,3.95 -2.986,4.059 -2.134,0.104 -4.06,1.067 -4.485,1.173 -0.427,0.108 -1.816,0.534 -1.816,0.534 h -4.376 c 0,0 -1.173,-0.213 -1.706,-0.96 -0.536,-0.747 -1.493,-1.708 -1.493,-2.774 0,-1.07 0.104,-1.923 0.427,-3.312 0.323,-1.385 1.279,-2.135 1.279,-2.135 l 0.64,-1.922 z" />
          <line
             style="fill:#5c8727;stroke:#b4cc95;stroke-width:1.18069994;stroke-linecap:round;stroke-linejoin:round"
             id="line347"
             y2="20.216999"
             x2="373.06299"
             y1="24.698999"
             x1="372.953" />
        </g>
      </g>
      <path
         style="fill:#5c8727;stroke:#b4cc95;stroke-width:1.18069994;stroke-linecap:round;stroke-linejoin:round"
         inkscape:connector-curvature="0"
         id="path349"
         d="m 363.171,15.29 c 0,0 0.875,3.357 0.075,6.06 -0.808,2.699 -2.121,5.036 -2.121,5.036 0,0 5.625,-4.745 5.475,-5.913 -0.145,-1.167 -0.145,-3.285 -0.145,-3.285" />
    </g>
  </g>
</svg>
