<?xml version="1.0" encoding="UTF-8" standalone="no"?>
<!-- Created with Inkscape (http://www.inkscape.org/) -->

<svg
   xmlns:dc="http://purl.org/dc/elements/1.1/"
   xmlns:cc="http://creativecommons.org/ns#"
   xmlns:rdf="http://www.w3.org/1999/02/22-rdf-syntax-ns#"
   xmlns:svg="http://www.w3.org/2000/svg"
   xmlns="http://www.w3.org/2000/svg"
   xmlns:sodipodi="http://sodipodi.sourceforge.net/DTD/sodipodi-0.dtd"
   xmlns:inkscape="http://www.inkscape.org/namespaces/inkscape"
   width="256"
   height="256"
   id="svg3806"
   version="1.1"
   inkscape:version="0.48.1 "
   sodipodi:docname="New document 6">
  <defs
     id="defs3808" />
  <sodipodi:namedview
     id="base"
     pagecolor="#ffffff"
     bordercolor="#666666"
     borderopacity="1.0"
     inkscape:pageopacity="0.0"
     inkscape:pageshadow="2"
     inkscape:zoom="1.4"
     inkscape:cx="109.44352"
     inkscape:cy="127.81658"
     inkscape:document-units="px"
     inkscape:current-layer="layer1"
     showgrid="false"
     inkscape:window-width="1248"
     inkscape:window-height="811"
     inkscape:window-x="66"
     inkscape:window-y="66"
     inkscape:window-maximized="0" />
  <metadata
     id="metadata3811">
    <rdf:RDF>
      <cc:Work
         rdf:about="">
        <dc:format>image/svg+xml</dc:format>
        <dc:type
           rdf:resource="http://purl.org/dc/dcmitype/StillImage" />
        <dc:title></dc:title>
      </cc:Work>
    </rdf:RDF>
  </metadata>
  <g
     inkscape:label="Layer 1"
     inkscape:groupmode="layer"
     id="layer1"
     transform="translate(0,-796.36218)">
    <g
       id="g255"
       transform="matrix(3.474876,0,0,3.474876,-1080.6563,755.08012)">
      <path
         style="fill:#5c8727"
         inkscape:connector-curvature="0"
         id="path257"
         d="m 343.669,20.994 c 0,0 6.143,1.021 5.045,-6.556 C 347.616,6.86 345.702,0.536 345.702,0.536 L 348.14,0 c 0,0 4.01,13.086 3.961,13.464 -0.051,0.381 2.803,8.367 2.803,8.367 l -6.487,2.903 -4.748,-3.74 z" />
      <g
         id="g259">
        <path
           style="fill:#5c8727;stroke:#b4cc95;stroke-width:1.18069994;stroke-linecap:round;stroke-linejoin:round"
           inkscape:connector-curvature="0"
           id="path261"
           d="m 331.699,26.6 c 0,0 -2.018,0.772 -3.813,2.775 -1.797,1.999 -3.012,3.205 -3.151,4.179 -0.14,0.975 -2.354,5.896 -2.354,5.896 0,0 -0.26,1.649 0.004,2.269 0.26,0.624 1.385,1.908 1.385,1.908 l 7.156,-4.144 0.773,-12.883 z" />
        <path
           style="fill:#5c8727;stroke:#b4cc95;stroke-width:1.18069994;stroke-linecap:round;stroke-linejoin:round"
           inkscape:connector-curvature="0"
           id="path263"
           d="m 345.129,73.172 c 0,0 -1.013,3.868 0.143,5.834 1.159,1.966 3.09,4.816 4.063,4.958 0.973,0.138 3.786,-1.191 4.478,-3.644 0.686,-2.447 -3.401,-4.684 -3.401,-4.684 l -5.283,-2.464 z" />
        <path
           style="fill:#5c8727;stroke:#b4cc95;stroke-width:1.18069994;stroke-linecap:round;stroke-linejoin:round"
           inkscape:connector-curvature="0"
           id="path265"
           d="m 367.183,65.62 c 0,0 1.833,4.355 0.025,6.506 -1.808,2.153 -4.112,5.024 -4.863,4.979 -0.754,-0.053 -2.663,-0.935 -2.845,-1.626 -0.181,-0.692 1.099,-5.223 1.329,-6.417 0.23,-1.196 0.196,-4.15 0.196,-4.15 l 6.158,0.708 z" />
        <path
           style="fill:#5c8727;stroke:#b4cc95;stroke-width:1.18069994;stroke-linecap:round;stroke-linejoin:round"
           inkscape:connector-curvature="0"
           id="path267"
           d="m 344.31,66.081 c 0,0 0.141,4.701 1.299,6.671 1.158,1.965 4.809,8.561 7.248,8.267 2.44,-0.298 5.099,-2.768 5.592,-3.341 0.49,-0.573 0.08,-1.202 1.509,-3.456 1.436,-2.249 1.066,-9.311 1.066,-9.311 l -6.949,-2.421 -8.124,0.449 -1.641,3.142 z" />
        <path
           style="fill:#5c8727;stroke:#b4cc95;stroke-width:1.18069994;stroke-linecap:round;stroke-linejoin:round"
           inkscape:connector-curvature="0"
           id="path269"
           d="m 329.694,65.124 c 0,0 -0.367,4.439 0.299,6.976 0.667,2.543 3.661,6.445 4.263,6.486 0.603,0.038 2.068,-2.664 2.095,-4.249 0.029,-1.588 -3.461,-8.324 -3.461,-8.324 l -3.196,-0.889 z" />
        <path
           style="fill:#5c8727;stroke:#b4cc95;stroke-width:1.18069994;stroke-linecap:round;stroke-linejoin:round"
           inkscape:connector-curvature="0"
           id="path271"
           d="m 332.238,67.862 c 0,0 2.61,9.777 5.555,12.165 2.946,2.387 3.368,2.871 3.368,2.871 l 4.218,-0.86 c 0,0 1.433,-2.25 2.116,-3.418 0.68,-1.164 -2.123,-13.752 -2.123,-13.752 l -0.714,-1.787 -12.42,4.781 z" />
        <path
           style="fill:#5c8727;stroke:#b4cc95;stroke-width:1.18069994;stroke-linecap:round;stroke-linejoin:round"
           inkscape:connector-curvature="0"
           id="path273"
           d="m 325.51,56.297 c 0,0 -1.194,12.338 9.703,12.366 5.977,0.011 9.234,-4.69 9.234,-4.69 l -8.123,-9.914 -10.814,2.238 z" />
        <path
           style="fill:#5c8727;stroke:#b4cc95;stroke-width:1.18069994;stroke-linecap:round;stroke-linejoin:round"
           inkscape:connector-curvature="0"
           id="path275"
           d="m 358.887,53.726 c 0,0 2.364,5.454 2.307,7.489 -0.059,2.038 -0.767,4.793 -2.797,5.719 -2.028,0.925 -5.955,-3.725 -7.375,-6.31 -1.418,-2.591 7.865,-6.898 7.865,-6.898 z" />
        <path
           style="fill:#5c8727;stroke:#b4cc95;stroke-width:1.18069994;stroke-linecap:round;stroke-linejoin:round"
           inkscape:connector-curvature="0"
           id="path277"
           d="m 331.094,36.922 c 0,0 -8.557,5.943 -9.229,6.957 -0.674,1.017 -3.371,5.226 -0.829,9.1 2.546,3.872 6.553,3.912 6.553,3.912 0,0 4.438,0.366 5.873,-0.749 1.436,-1.117 2.959,-3.591 2.959,-3.591 l -5.327,-15.629 z" />
        <path
           style="fill:#5c8727;stroke:#b4cc95;stroke-width:1.18069994;stroke-linecap:round;stroke-linejoin:round"
           inkscape:connector-curvature="0"
           id="path279"
           d="m 357.699,49.941 c 0,0 2.612,13.185 -9.114,14.378 -11.73,1.195 -12.998,-4.788 -14.575,-11.924 -1.571,-7.139 0.988,-8.106 0.988,-8.106 l 12.054,-8.436 8.993,8.154 1.654,5.934 z" />
        <path
           style="fill:#5c8727;stroke:#b4cc95;stroke-width:1.18069994;stroke-linecap:round;stroke-linejoin:round"
           inkscape:connector-curvature="0"
           id="path281"
           d="m 367.771,27.914 c 0,0 4.987,4.712 5.408,7.464 0.426,2.751 0.397,5.473 -2.681,7.463 -3.084,1.992 -10.115,-11.86 -10.115,-11.86 l 7.388,-3.067 z" />
        <path
           style="fill:#5c8727;stroke:#b4cc95;stroke-width:1.18069994;stroke-linecap:round;stroke-linejoin:round"
           inkscape:connector-curvature="0"
           id="path283"
           d="m 364.18,31.909 c 0,0 7.126,7.808 7.447,10.931 0.329,3.122 -3.464,7.865 -3.464,7.865 l -8.946,-8.91 4.963,-9.886 z" />
        <path
           style="fill:#5c8727;stroke:#b4cc95;stroke-width:1.18069994;stroke-linecap:round;stroke-linejoin:round"
           inkscape:connector-curvature="0"
           id="path285"
           d="m 363.815,42.023 c 0,0 7.085,6.14 7.83,8.61 0.748,2.471 1.323,4.095 -0.03,7.411 -1.354,3.316 -2.435,4.832 -3.568,5.968 -1.136,1.136 -1.573,2.09 -2.72,2.242 -1.145,0.15 -4.278,-0.507 -5.717,-2.796 -1.438,-2.288 -3.226,-13.07 -3.226,-13.07 l 7.431,-8.365 z" />
        <path
           style="fill:#5c8727;stroke:#b4cc95;stroke-width:1.18069994;stroke-linecap:round;stroke-linejoin:round"
           inkscape:connector-curvature="0"
           id="path287"
           d="m 362.501,30.967 c 0,0 2.895,4.277 3.103,9.207 0.207,4.931 -1.009,7.272 -2.26,9.078 -1.254,1.809 -5.34,5.248 -5.34,5.248 0,0 -8.27,-6.521 -9.963,-12.983 -1.693,-6.466 -2.188,-9.297 -2.188,-9.297 l 6.765,-5.081 9.883,3.828 z" />
        <path
           style="fill:#5c8727;stroke:#b4cc95;stroke-width:1.18069994;stroke-linecap:round;stroke-linejoin:round"
           inkscape:connector-curvature="0"
           id="path289"
           d="m 335.45,22.457 -5.37,4.564 -0.598,2.23 -0.319,2.55 c 0,0 -0.552,0.341 -0.833,1.156 -0.28,0.814 -0.943,1.677 -0.728,3.055 0.209,1.374 0.05,2.649 0.253,4.174 0.201,1.529 0.453,4.572 0.453,4.572 l -0.48,0.422 c 0,0 -0.388,2.471 -0.108,2.793 0.281,0.319 1.29,2.277 2.203,2.186 0.914,-0.091 3.173,0.057 3.173,0.057 0,0 3.676,0.469 9.243,-4.839 5.569,-5.307 5.724,-11.121 5.724,-11.121 l 0.118,-4.077 -12.731,-7.722 z" />
        <path
           style="fill:#5c8727;stroke:#b4cc95;stroke-width:1.18069994;stroke-linecap:round;stroke-linejoin:round"
           inkscape:connector-curvature="0"
           id="path291"
           d="m 353.555,20.923 c 0,0 6.822,-5.981 11.87,-1.033 5.045,4.945 4.205,9.657 4.205,9.657 l -6.38,6.162 c 0,0 -6.039,-0.248 -8.601,-2.687 -2.562,-2.435 -5.508,-7.093 -1.094,-12.099 z" />
        <path
           style="fill:#5c8727;stroke:#b4cc95;stroke-width:1.18069994;stroke-linecap:round;stroke-linejoin:round"
           inkscape:connector-curvature="0"
           id="path293"
           d="m 348.192,20.797 c 0,0 -1.651,-3.662 -2.887,-4.425 -1.235,-0.761 -3.696,-1.301 -6.51,-1.108 -2.812,0.195 -5.147,1.248 -6.121,2.244 -0.973,0.997 -2.188,2.204 -2.188,2.204 0,0 2.171,3.771 2.885,4.423 0.714,0.653 8.917,0.134 8.917,0.134 l 5.904,-3.472 z" />
        <g
           id="g295">
          <path
             style="fill:#5c8727;stroke:#b4cc95;stroke-width:1.18069994;stroke-linecap:round;stroke-linejoin:round"
             inkscape:connector-curvature="0"
             id="path297"
             d="m 347.979,19.424 c 0,0 -5.364,-1.261 -7.26,-0.024 -1.896,1.236 -5.619,4.928 -5.619,4.928 l 0.216,4.779 c 0,0 3.328,3.472 5.265,3.898 1.938,0.434 3.246,2.41 4.921,1.083 1.676,-1.328 3.753,-1.872 4.146,-2.074 0.396,-0.199 1.716,-0.794 1.716,-0.794 l 3.294,-2.887 c 0,0 0.74,-0.931 0.648,-1.844 -0.088,-0.917 0,-2.272 -0.707,-3.073 -0.702,-0.804 -1.346,-1.375 -2.505,-2.206 -1.152,-0.833 -2.366,-0.762 -2.366,-0.762 l -1.749,-1.024 z" />
          <line
             style="fill:#5c8727;stroke:#b4cc95;stroke-width:1.18069994;stroke-linecap:round;stroke-linejoin:round"
             id="line299"
             y2="19.714001"
             x2="348.94299"
             y1="23.014"
             x1="351.98001" />
        </g>
      </g>
      <path
         style="fill:#5c8727;stroke:#b4cc95;stroke-width:1.18069994;stroke-linecap:round;stroke-linejoin:round"
         inkscape:connector-curvature="0"
         id="path301"
         d="m 348.564,9.49 c 0,0 -1.553,3.102 -3.938,4.604 -2.385,1.501 -4.913,2.392 -4.913,2.392 0,0 7.354,0.138 8.013,-0.837 0.66,-0.975 2.057,-2.565 2.057,-2.565" />
    </g>
  </g>
</svg>
