<?xml version="1.0" encoding="utf-8"?>
<!-- Generator: Adobe Illustrator 12.0.1, SVG Export Plug-In . SVG Version: 6.00 Build 51448)  -->
<!DOCTYPE svg PUBLIC "-//W3C//DTD SVG 1.1//EN" "http://www.w3.org/Graphics/SVG/1.1/DTD/svg11.dtd" [
	<!ENTITY ns_svg "http://www.w3.org/2000/svg">
	<!ENTITY ns_xlink "http://www.w3.org/1999/xlink">
]>
<svg  version="1.1" id="Layer_1" xmlns="&ns_svg;" xmlns:xlink="&ns_xlink;" width="695.788" height="108.132"
	 viewBox="0 0 695.788 108.132" overflow="visible" enable-background="new 0 0 695.788 108.132" xml:space="preserve">
<g>
	<g>
		<g>
			<path fill="#DEB407" d="M560.569,42.089l-2.579-1.064l-14.211-5.681c-23.969-9.518-40.067-14.733-66.772-18.722
				c-23.243-3.477-36.014,0.475-45.335,3.36c-1.423,0.436-2.769,0.854-4.03,1.205c-9.449,2.614-20.104,13.286-20.554,13.738
				l1.254,1.242c0.104-0.11,10.772-10.795,19.767-13.286c1.294-0.352,2.652-0.775,4.09-1.222c9.152-2.837,21.697-6.72,44.544-3.304
				c26.531,3.966,42.76,8.797,66.597,18.255c6.991,2.776,11.281,4.343,16.418,6.474l0.914,0.198
				c1.365,0.508,0.718,1.082,1.044,0.234C562.023,42.704,561.316,42.4,560.569,42.089z"/>
			<path fill="none" stroke="#DEB407" stroke-width="0.7648" d="M448.326,17.262c0,0,26.22-8.662,52.664-6.996
				c26.444,1.66,133.044,14.635,158.366,23.25"/>
			<path fill="none" stroke="#DEB407" stroke-width="0.7648" d="M452.457,16.475c0,0,23.236-8.637,72.393-6.155
				c49.164,2.471,143.484,22.827,143.484,22.827"/>
			<path fill="none" stroke="#DEB407" stroke-width="0.7648" d="M469.922,11.929c0,0,46.242-1.562,71.226,1.329
				c24.982,2.912,87.459,11.651,93.138,11.851c5.676,0.205,29.67,1.934,29.67,1.934"/>
			<path fill="none" stroke="#DEB407" stroke-width="0.7648" d="M655.201,27.933c0,0-49.471-5.212-61.611-5.956
				c-12.149-0.741-52.175-5.437-81.063-7.036c-28.89-1.594-55.175,4.615-55.175,4.615s61.435,21.132,93.981,34.158
				c32.547,13.026,95.472,42.414,110.123,45.539c14.654,3.118,25.406,7.547,25.406,7.547s-89.466-32.96-112.076-44.888
				c-22.599-11.922-55.327-22.792-85.492-31.814c-30.17-9.037-50.284-8.55-53.56-8.281"/>
			<path fill="none" stroke="#DEB407" stroke-width="0.7648" d="M438.785,24.249c0,0,36.7,5.503,57.396,11.032
				c20.696,5.521,73.019,25.353,93.11,34.902c20.091,9.538,53.081,23.68,65.793,27.455c12.698,3.777,24.528,8.279,24.528,8.279"/>
			<path fill="none" stroke="#DEB407" stroke-width="0.7648" d="M450.433,24.405c0,0,14.999,2.343,30.189,5.505
				c15.2,3.177,44.941,14.056,60.79,19.181c15.852,5.123,86.419,37.046,91.178,38.535c4.757,1.481,38.183,13.766,42.601,16.032
				c4.423,2.26,7.078,3.033,7.078,3.033"/>
			<path fill="none" stroke="#DEB407" stroke-width="0.7648" d="M651.875,23.82c0,0-49.477-5.212-61.62-5.961
				c-12.143-0.741-52.166-5.434-81.058-7.039c-28.887-1.597-55.178,4.624-55.178,4.624s61.435,21.129,93.984,34.149
				c32.548,13.023,95.459,42.419,110.12,45.539c14.661,3.125,25.412,7.552,25.412,7.552s-89.472-32.97-112.076-44.887
				c-22.602-11.928-55.336-22.798-85.5-31.824c-30.168-9.028-50.282-8.543-53.558-8.267"/>
			<path fill="none" stroke="#DEB407" stroke-width="0.7648" d="M435.456,26.097c0,0,36.697,5.505,57.394,11.034
				c20.696,5.525,73.027,25.346,93.112,34.896c20.089,9.545,53.082,23.687,65.788,27.463c12.707,3.771,24.534,8.285,24.534,8.285"/>
			<path fill="none" stroke="#DEB407" stroke-width="0.7648" d="M447.104,23.269c0,0,15.004,2.347,30.192,5.506
				c15.196,3.168,44.936,14.061,60.787,19.178c15.852,5.122,86.422,37.049,91.178,38.53c4.763,1.494,38.18,13.768,42.604,16.039
				c4.42,2.267,7.072,3.021,7.072,3.021"/>
			<path fill="none" stroke="#DEB407" stroke-width="0.7648" d="M690.573,85.14c0,0-25.973,2.444-80.741-17.312
				c-54.774-19.768-83.998-27.09-90.373-28.708c-6.37-1.617-76.074-19.134-76.074-19.134"/>
			<path fill="none" stroke="#DEB407" stroke-width="0.7648" d="M695.738,71.972c0,0-51.788-6.771-99.644-24.873
				c-47.854-18.094-84.871-32.847-105.876-34.6c-21.011-1.758-51.562,3.127-51.562,3.127"/>
			<path fill="none" stroke="#DEB407" stroke-width="0.7648" d="M692.504,71.699c0,0-61.592-15.989-98.156-29.618
				c-36.565-13.635-69.969-22.931-83.753-26.796c-13.784-3.86-40.066-4.157-40.066-4.157"/>
			<path fill="none" stroke="#DEB407" stroke-width="0.7648" d="M694.597,71.69c0,0-51.781-6.773-99.644-24.87
				c-47.857-18.097-84.868-32.853-105.885-34.608c-21.002-1.753-51.543,3.128-51.543,3.128"/>
			<path fill="none" stroke="#DEB407" stroke-width="0.7648" d="M691.368,71.414c0,0-61.598-15.987-98.168-29.622
				c-36.562-13.628-69.966-22.928-83.744-26.793c-13.781-3.868-40.069-4.157-40.069-4.157"/>
			<path fill="none" stroke="#DEB407" stroke-width="0.7648" d="M679.461,72.001c0,0-42.017-16.52-76.114-27.237
				c-34.097-10.717-69.561-21.27-69.561-21.27s-13.825-3.321-34.998-6.446c-21.164-3.125-43.255-4.963-43.255-4.963"/>
			<path fill="none" stroke="#DEB407" stroke-width="0.7648" d="M677.82,72.821c0,0-42.021-16.528-76.117-27.246
				c-34.1-10.712-69.558-21.271-69.558-21.271s-13.837-3.318-35.001-6.442c-21.169-3.127-43.258-4.967-43.258-4.967"/>
			<g>
				<path fill="#C49F06" d="M571.382,42.648c0,0-4.131-4.186-6.728-3.75c-2.591,0.415-5.004,2.456-5.004,2.456
					s1.961,3.361,5.679,2.871C569.047,43.729,571.382,42.648,571.382,42.648z"/>
				<path fill="#C49F06" d="M561.751,51.464c0,0,0.064-5.878-2.063-7.415c-2.127-1.55-5.274-1.824-5.274-1.824
					s-1.003,3.752,1.959,6.053C559.342,50.576,561.751,51.464,561.751,51.464z"/>
				<path fill="#C49F06" d="M553.756,47.592c0,0,0.066-5.874-2.067-7.414c-2.125-1.545-5.269-1.816-5.269-1.816
					s-1.01,3.753,1.96,6.056C551.346,46.707,553.756,47.592,553.756,47.592z"/>
				<path fill="#C49F06" d="M544.877,44.773c0,0,0.062-5.872-2.066-7.417c-2.125-1.551-5.269-1.822-5.269-1.822
					s-1.016,3.761,1.953,6.056C542.471,43.894,544.877,44.773,544.877,44.773z"/>
				<path fill="#C49F06" d="M536.952,42.034c0,0,0.062-5.877-2.062-7.425c-2.134-1.537-5.278-1.819-5.278-1.819
					s-1.006,3.765,1.959,6.059C534.531,41.141,536.952,42.034,536.952,42.034z"/>
				<path fill="#C49F06" d="M528.703,39.271c0,0,0.058-5.875-2.064-7.426c-2.129-1.548-5.271-1.816-5.271-1.816
					s-1.009,3.756,1.964,6.053C526.288,38.379,528.703,39.271,528.703,39.271z"/>
				<path fill="#C49F06" d="M519.335,36.563c0,0,0.063-5.883-2.07-7.422c-2.124-1.539-5.269-1.822-5.269-1.822
					s-1.009,3.761,1.955,6.062C516.919,35.675,519.335,36.563,519.335,36.563z"/>
				<path fill="#C49F06" d="M510.227,34.526c0,0,0.057-5.875-2.068-7.426c-2.129-1.539-5.269-1.813-5.269-1.813
					s-1.006,3.75,1.958,6.056C507.815,33.641,510.227,34.526,510.227,34.526z"/>
				<path fill="#C49F06" d="M500.391,31.626c0,0,0.063-5.878-2.062-7.423c-2.129-1.545-5.284-1.816-5.284-1.816s-1,3.756,1.97,6.053
					C497.98,30.738,500.391,31.626,500.391,31.626z"/>
				<path fill="#C49F06" d="M491.017,28.924c0,0,0.069-5.877-2.059-7.417c-2.129-1.547-5.274-1.825-5.274-1.825
					s-1.009,3.756,1.961,6.054C488.612,28.034,491.017,28.924,491.017,28.924z"/>
				<path fill="#C49F06" d="M482.155,27.864c0,0,0.058-5.88-2.062-7.425c-2.131-1.537-5.276-1.816-5.276-1.816
					s-1.009,3.765,1.961,6.057C479.745,26.971,482.155,27.864,482.155,27.864z"/>
				<path fill="#C49F06" d="M472.967,26.46c0,0-0.588-5.849-2.875-7.148c-2.285-1.297-5.444-1.226-5.444-1.226
					s-0.576,3.849,2.62,5.794C470.473,25.844,472.967,26.46,472.967,26.46z"/>
				<path fill="#C49F06" d="M455.942,27.282c0,0-0.582-5.854-2.872-7.154c-2.292-1.292-5.441-1.226-5.441-1.226
					s-0.582,3.849,2.611,5.806C453.45,26.659,455.942,27.282,455.942,27.282z"/>
				<path fill="#C49F06" d="M447.992,28.686c0,0-0.586-5.849-2.878-7.14c-2.279-1.297-5.441-1.228-5.441-1.228
					s-0.585,3.848,2.617,5.808C445.496,28.071,447.992,28.686,447.992,28.686z"/>
				<path fill="#C49F06" d="M464.631,26.722c0,0-0.588-5.84-2.878-7.148c-2.286-1.297-5.442-1.219-5.442-1.219
					s-0.585,3.84,2.618,5.797C462.133,26.1,464.631,26.722,464.631,26.722z"/>
				<path fill="#C49F06" d="M440.598,29.034c0,0-0.585-5.845-2.874-7.146c-2.276-1.302-5.433-1.225-5.433-1.225
					s-0.583,3.846,2.616,5.799C438.11,28.415,440.598,29.034,440.598,29.034z"/>
				<path fill="#C49F06" d="M563.755,37.517c0,0-4.762-3.447-7.252-2.603c-2.488,0.842-4.535,3.254-4.535,3.254
					s2.487,2.995,6.073,1.897C561.637,38.968,563.755,37.517,563.755,37.517z"/>
				<path fill="#C49F06" d="M555.558,34.119c0,0-4.763-3.45-7.253-2.603c-2.491,0.842-4.525,3.249-4.525,3.249s2.483,2.986,6.07,1.9
					C553.438,35.566,555.558,34.119,555.558,34.119z"/>
				<path fill="#C49F06" d="M547.048,30.677c0,0-4.759-3.439-7.252-2.594c-2.482,0.841-4.526,3.25-4.526,3.25
					s2.484,3.001,6.073,1.909C544.927,32.139,547.048,30.677,547.048,30.677z"/>
				<path fill="#C49F06" d="M538.545,27.247c0,0-4.769-3.445-7.255-2.594c-2.483,0.839-4.532,3.249-4.532,3.249
					s2.49,2.998,6.076,1.903C536.417,28.706,538.545,27.247,538.545,27.247z"/>
				<path fill="#C49F06" d="M530.035,23.823c0,0-4.768-3.445-7.257-2.6c-2.489,0.851-4.533,3.257-4.533,3.257
					s2.49,2.983,6.079,1.891C527.914,25.273,530.035,23.823,530.035,23.823z"/>
				<path fill="#C49F06" d="M520.852,20.958c0,0-4.763-3.436-7.253-2.6c-2.491,0.851-4.531,3.254-4.531,3.254s2.488,3.001,6.073,1.9
					C518.729,22.416,520.852,20.958,520.852,20.958z"/>
				<path fill="#C49F06" d="M511.769,18.614c0,0-4.762-3.45-7.256-2.609c-2.487,0.842-4.528,3.252-4.528,3.252
					s2.487,2.989,6.073,1.902C509.648,20.058,511.769,18.614,511.769,18.614z"/>
				<path fill="#C49F06" d="M502.688,16.253c0,0-4.766-3.457-7.249-2.603c-2.495,0.841-4.529,3.251-4.529,3.251
					s2.487,2.989,6.073,1.893C500.569,17.701,502.688,16.253,502.688,16.253z"/>
				<path fill="#C49F06" d="M493.236,14.5c0,0-4.756-3.451-7.246-2.603c-2.492,0.841-4.529,3.263-4.529,3.263
					s2.484,2.989,6.073,1.885C491.117,15.959,493.236,14.5,493.236,14.5z"/>
				<path fill="#C49F06" d="M483.083,12.563c0,0-5.005-3.073-7.431-2.043c-2.418,1.043-4.271,3.598-4.271,3.598
					s2.706,2.793,6.197,1.427C481.077,14.175,483.083,12.563,483.083,12.563z"/>
				<path fill="#C49F06" d="M472.401,10.367c0,0-5.68-1.487-7.694,0.205c-2.012,1.694-3.046,4.675-3.046,4.675
					s3.397,1.882,6.347-0.441C470.959,12.494,472.401,10.367,472.401,10.367z"/>
				<path fill="#C49F06" d="M463.091,10.866c0,0-5.69-1.484-7.705,0.207c-2.009,1.689-3.042,4.679-3.042,4.679
					s3.401,1.885,6.349-0.438C461.638,12.996,463.091,10.866,463.091,10.866z"/>
				<path fill="#C49F06" d="M453.774,11.367c0,0-5.693-1.484-7.708,0.21c-2.012,1.686-3.041,4.667-3.041,4.667
					s3.404,1.9,6.348-0.438C452.327,13.495,453.774,11.367,453.774,11.367z"/>
				<path fill="#C49F06" d="M443.432,13.391c0,0-5.725-1.317-7.691,0.438c-1.953,1.75-2.898,4.762-2.898,4.762
					s3.461,1.785,6.338-0.625C442.055,15.555,443.432,13.391,443.432,13.391z"/>
			</g>
		</g>
	</g>
	<g>
		<g>
			<path fill="#DEB407" d="M135.218,42.089l2.58-1.064l14.211-5.681c23.969-9.518,40.068-14.733,66.772-18.722
				c23.244-3.477,36.014,0.475,45.335,3.36c1.421,0.436,2.769,0.854,4.03,1.205c9.449,2.614,20.104,13.286,20.554,13.738
				l-1.254,1.242c-0.104-0.11-10.772-10.795-19.766-13.286c-1.295-0.352-2.653-0.775-4.09-1.222
				c-9.152-2.837-21.698-6.72-44.544-3.304c-26.531,3.966-42.76,8.797-66.595,18.255c-6.994,2.776-11.283,4.343-16.419,6.474
				l-0.914,0.198c-1.367,0.508-0.718,1.082-1.043,0.234C133.766,42.704,134.472,42.4,135.218,42.089z"/>
			<path fill="none" stroke="#DEB407" stroke-width="0.7648" d="M247.462,17.262c0,0-26.22-8.662-52.665-6.996
				c-26.444,1.66-133.044,14.635-158.367,23.25"/>
			<path fill="none" stroke="#DEB407" stroke-width="0.7648" d="M243.331,16.475c0,0-23.236-8.637-72.393-6.155
				C121.774,12.791,27.454,33.147,27.454,33.147"/>
			<path fill="none" stroke="#DEB407" stroke-width="0.7648" d="M225.866,11.929c0,0-46.242-1.562-71.225,1.329
				c-24.983,2.912-87.46,11.651-93.138,11.851c-5.676,0.205-29.67,1.934-29.67,1.934"/>
			<path fill="none" stroke="#DEB407" stroke-width="0.7648" d="M40.587,27.933c0,0,49.47-5.212,61.611-5.956
				c12.15-0.741,52.174-5.437,81.063-7.036c28.89-1.594,55.175,4.615,55.175,4.615S177,40.688,144.454,53.714
				c-32.547,13.026-95.47,42.414-110.122,45.539C19.677,102.372,8.925,106.8,8.925,106.8s89.466-32.96,112.077-44.888
				c22.599-11.922,55.327-22.792,85.492-31.814c30.17-9.037,50.284-8.55,53.558-8.281"/>
			<path fill="none" stroke="#DEB407" stroke-width="0.7648" d="M257.002,24.249c0,0-36.7,5.503-57.396,11.032
				c-20.697,5.521-73.018,25.353-93.109,34.902c-20.091,9.538-53.083,23.68-65.794,27.455c-12.698,3.777-24.527,8.279-24.527,8.279"
				/>
			<path fill="none" stroke="#DEB407" stroke-width="0.7648" d="M245.355,24.405c0,0-14.999,2.343-30.189,5.505
				c-15.201,3.177-44.942,14.056-60.791,19.181c-15.852,5.123-86.418,37.046-91.178,38.535
				c-4.756,1.481-38.183,13.766-42.601,16.032c-4.422,2.26-7.077,3.033-7.077,3.033"/>
			<path fill="none" stroke="#DEB407" stroke-width="0.7648" d="M43.913,23.82c0,0,49.476-5.212,61.621-5.961
				c12.141-0.741,52.165-5.434,81.057-7.039c28.887-1.597,55.179,4.624,55.179,4.624s-61.436,21.129-93.986,34.149
				C115.237,62.616,52.325,92.011,37.664,95.131c-14.661,3.125-25.413,7.552-25.413,7.552s89.472-32.97,112.077-44.887
				c22.602-11.928,55.336-22.798,85.498-31.824c30.17-9.028,50.284-8.543,53.558-8.267"/>
			<path fill="none" stroke="#DEB407" stroke-width="0.7648" d="M260.332,26.097c0,0-36.697,5.505-57.394,11.034
				c-20.697,5.525-73.027,25.346-93.112,34.896C89.737,81.572,56.744,95.713,44.037,99.49c-12.706,3.771-24.533,8.285-24.533,8.285"
				/>
			<path fill="none" stroke="#DEB407" stroke-width="0.7648" d="M248.684,23.269c0,0-15.003,2.347-30.192,5.506
				c-15.198,3.168-44.937,14.061-60.788,19.178c-15.851,5.122-86.421,37.049-91.178,38.53c-4.762,1.494-38.179,13.768-42.604,16.039
				c-4.418,2.267-7.071,3.021-7.071,3.021"/>
			<path fill="none" stroke="#DEB407" stroke-width="0.7648" d="M5.215,85.14c0,0,25.972,2.444,80.741-17.312
				c54.774-19.768,83.998-27.09,90.374-28.708c6.37-1.617,76.074-19.134,76.074-19.134"/>
			<path fill="none" stroke="#DEB407" stroke-width="0.7648" d="M0.05,71.972c0,0,51.788-6.771,99.644-24.873
				c47.854-18.094,84.872-32.847,105.876-34.6c21.011-1.758,51.561,3.127,51.561,3.127"/>
			<path fill="none" stroke="#DEB407" stroke-width="0.7648" d="M3.284,71.699c0,0,61.591-15.989,98.156-29.618
				c36.565-13.635,69.968-22.931,83.753-26.796c13.784-3.86,40.067-4.157,40.067-4.157"/>
			<path fill="none" stroke="#DEB407" stroke-width="0.7648" d="M1.191,71.69c0,0,51.783-6.773,99.645-24.87
				c47.855-18.097,84.868-32.853,105.884-34.608c21.002-1.753,51.543,3.128,51.543,3.128"/>
			<path fill="none" stroke="#DEB407" stroke-width="0.7648" d="M4.419,71.414c0,0,61.598-15.987,98.168-29.622
				c36.562-13.628,69.965-22.928,83.744-26.793c13.781-3.868,40.07-4.157,40.07-4.157"/>
			<path fill="none" stroke="#DEB407" stroke-width="0.7648" d="M16.328,72.001c0,0,42.016-16.52,76.113-27.237
				c34.098-10.717,69.562-21.27,69.562-21.27s13.825-3.321,34.997-6.446c21.163-3.125,43.255-4.963,43.255-4.963"/>
			<path fill="none" stroke="#DEB407" stroke-width="0.7648" d="M17.967,72.821c0,0,42.022-16.528,76.117-27.246
				c34.101-10.712,69.559-21.271,69.559-21.271s13.837-3.318,35-6.442c21.17-3.127,43.259-4.967,43.259-4.967"/>
			<g>
				<path fill="#C49F06" d="M124.406,42.648c0,0,4.13-4.186,6.727-3.75c2.592,0.415,5.004,2.456,5.004,2.456
					s-1.96,3.361-5.679,2.871C126.741,43.729,124.406,42.648,124.406,42.648z"/>
				<path fill="#C49F06" d="M134.036,51.464c0,0-0.063-5.878,2.064-7.415c2.127-1.55,5.275-1.824,5.275-1.824
					s1.004,3.752-1.96,6.053C136.446,50.576,134.036,51.464,134.036,51.464z"/>
				<path fill="#C49F06" d="M142.032,47.592c0,0-0.066-5.874,2.067-7.414c2.124-1.545,5.269-1.816,5.269-1.816
					s1.009,3.753-1.96,6.056C144.442,46.707,142.032,47.592,142.032,47.592z"/>
				<path fill="#C49F06" d="M150.911,44.773c0,0-0.06-5.872,2.066-7.417c2.125-1.551,5.27-1.822,5.27-1.822s1.014,3.761-1.954,6.056
					C153.318,43.894,150.911,44.773,150.911,44.773z"/>
				<path fill="#C49F06" d="M158.835,42.034c0,0-0.061-5.877,2.063-7.425c2.133-1.537,5.278-1.819,5.278-1.819
					s1.006,3.765-1.96,6.059C161.256,41.141,158.835,42.034,158.835,42.034z"/>
				<path fill="#C49F06" d="M167.084,39.271c0,0-0.058-5.875,2.064-7.426c2.13-1.548,5.272-1.816,5.272-1.816
					s1.009,3.756-1.963,6.053C169.5,38.379,167.084,39.271,167.084,39.271z"/>
				<path fill="#C49F06" d="M176.453,36.563c0,0-0.064-5.883,2.069-7.422c2.125-1.539,5.27-1.822,5.27-1.822
					s1.009,3.761-1.955,6.062C178.869,35.675,176.453,36.563,176.453,36.563z"/>
				<path fill="#C49F06" d="M185.562,34.526c0,0-0.057-5.875,2.068-7.426c2.129-1.539,5.269-1.813,5.269-1.813
					s1.006,3.75-1.958,6.056C187.972,33.641,185.562,34.526,185.562,34.526z"/>
				<path fill="#C49F06" d="M195.397,31.626c0,0-0.063-5.878,2.062-7.423c2.129-1.545,5.282-1.816,5.282-1.816
					s1.001,3.756-1.968,6.053C197.806,30.738,195.397,31.626,195.397,31.626z"/>
				<path fill="#C49F06" d="M204.771,28.924c0,0-0.069-5.877,2.059-7.417c2.129-1.547,5.275-1.825,5.275-1.825
					s1.009,3.756-1.961,6.054C207.175,28.034,204.771,28.924,204.771,28.924z"/>
				<path fill="#C49F06" d="M213.632,27.864c0,0-0.057-5.88,2.064-7.425c2.129-1.537,5.275-1.816,5.275-1.816
					s1.009,3.765-1.961,6.057C216.042,26.971,213.632,27.864,213.632,27.864z"/>
				<path fill="#C49F06" d="M222.821,26.46c0,0,0.588-5.849,2.875-7.148c2.285-1.297,5.445-1.226,5.445-1.226
					s0.576,3.849-2.621,5.794C225.316,25.844,222.821,26.46,222.821,26.46z"/>
				<path fill="#C49F06" d="M239.846,27.282c0,0,0.582-5.854,2.872-7.154c2.292-1.292,5.441-1.226,5.441-1.226
					s0.582,3.849-2.612,5.806C242.336,26.659,239.846,27.282,239.846,27.282z"/>
				<path fill="#C49F06" d="M247.795,28.686c0,0,0.585-5.849,2.876-7.14c2.281-1.297,5.443-1.228,5.443-1.228
					s0.585,3.848-2.618,5.808C250.292,28.071,247.795,28.686,247.795,28.686z"/>
				<path fill="#C49F06" d="M231.157,26.722c0,0,0.588-5.84,2.878-7.148c2.286-1.297,5.441-1.219,5.441-1.219
					s0.585,3.84-2.618,5.797C233.653,26.1,231.157,26.722,231.157,26.722z"/>
				<path fill="#C49F06" d="M255.189,29.034c0,0,0.586-5.845,2.875-7.146c2.277-1.302,5.433-1.225,5.433-1.225
					s0.582,3.846-2.617,5.799C257.678,28.415,255.189,29.034,255.189,29.034z"/>
				<path fill="#C49F06" d="M132.033,37.517c0,0,4.762-3.447,7.253-2.603c2.488,0.842,4.534,3.254,4.534,3.254
					s-2.488,2.995-6.074,1.897C134.151,38.968,132.033,37.517,132.033,37.517z"/>
				<path fill="#C49F06" d="M140.23,34.119c0,0,4.762-3.45,7.253-2.603c2.49,0.842,4.525,3.249,4.525,3.249s-2.485,2.986-6.07,1.9
					C142.349,35.566,140.23,34.119,140.23,34.119z"/>
				<path fill="#C49F06" d="M148.74,30.677c0,0,4.759-3.439,7.253-2.594c2.482,0.841,4.525,3.25,4.525,3.25
					s-2.485,3.001-6.073,1.909C150.861,32.139,148.74,30.677,148.74,30.677z"/>
				<path fill="#C49F06" d="M157.244,27.247c0,0,4.767-3.445,7.255-2.594c2.482,0.839,4.531,3.249,4.531,3.249
					s-2.491,2.998-6.076,1.903C159.371,28.706,157.244,27.247,157.244,27.247z"/>
				<path fill="#C49F06" d="M165.753,23.823c0,0,4.768-3.445,7.255-2.6c2.491,0.851,4.534,3.257,4.534,3.257
					s-2.491,2.983-6.079,1.891C167.874,25.273,165.753,23.823,165.753,23.823z"/>
				<path fill="#C49F06" d="M174.937,20.958c0,0,4.762-3.436,7.252-2.6c2.49,0.851,4.532,3.254,4.532,3.254s-2.489,3.001-6.074,1.9
					C177.059,22.416,174.937,20.958,174.937,20.958z"/>
				<path fill="#C49F06" d="M184.019,18.614c0,0,4.762-3.45,7.257-2.609c2.487,0.842,4.527,3.252,4.527,3.252
					s-2.487,2.989-6.073,1.902C186.138,20.058,184.019,18.614,184.019,18.614z"/>
				<path fill="#C49F06" d="M193.1,16.253c0,0,4.765-3.457,7.249-2.603c2.495,0.841,4.529,3.251,4.529,3.251
					s-2.487,2.989-6.073,1.893C195.218,17.701,193.1,16.253,193.1,16.253z"/>
				<path fill="#C49F06" d="M202.552,14.5c0,0,4.756-3.451,7.246-2.603c2.492,0.841,4.529,3.263,4.529,3.263
					s-2.486,2.989-6.074,1.885C204.67,15.959,202.552,14.5,202.552,14.5z"/>
				<path fill="#C49F06" d="M212.705,12.563c0,0,5.007-3.073,7.431-2.043c2.418,1.043,4.271,3.598,4.271,3.598
					s-2.706,2.793-6.198,1.427C214.71,14.175,212.705,12.563,212.705,12.563z"/>
				<path fill="#C49F06" d="M223.387,10.367c0,0,5.679-1.487,7.694,0.205c2.012,1.694,3.046,4.675,3.046,4.675
					s-3.398,1.882-6.347-0.441C224.829,12.494,223.387,10.367,223.387,10.367z"/>
				<path fill="#C49F06" d="M232.697,10.866c0,0,5.69-1.484,7.705,0.207c2.009,1.689,3.042,4.679,3.042,4.679
					s-3.401,1.885-6.348-0.438C234.15,12.996,232.697,10.866,232.697,10.866z"/>
				<path fill="#C49F06" d="M242.014,11.367c0,0,5.693-1.484,7.708,0.21c2.012,1.686,3.041,4.667,3.041,4.667
					s-3.404,1.9-6.347-0.438C243.46,13.495,242.014,11.367,242.014,11.367z"/>
				<path fill="#C49F06" d="M252.356,13.391c0,0,5.724-1.317,7.691,0.438c1.953,1.75,2.899,4.762,2.899,4.762
					s-3.461,1.785-6.338-0.625C253.733,15.555,252.356,13.391,252.356,13.391z"/>
			</g>
		</g>
	</g>
</g>
<g>
	<g>
		<path fill="#5C8727" d="M328.924,27.166c0,0-5.293-3.279,0.526-8.253c5.821-4.976,11.429-8.467,11.429-8.467l-1.479-2.01
			c0,0-11.641,7.197-11.855,7.512c-0.212,0.32-7.619,4.446-7.619,4.446l2.962,6.458L328.924,27.166z"/>
		<g>
			<path fill="#5C8727" stroke="#B4CC95" stroke-width="1.1807" stroke-linecap="round" stroke-linejoin="round" d="M305.428,14.025
				c0,0-2.027-0.747-4.698-0.428c-2.667,0.321-4.377,0.428-5.123,1.067c-0.747,0.642-5.657,2.882-5.657,2.882
				s-1.281,1.068-1.495,1.708c-0.213,0.641-0.213,2.348-0.213,2.348l8.111,1.603L305.428,14.025z"/>
			<path fill="#5C8727" stroke="#B4CC95" stroke-width="1.1807" stroke-linecap="round" stroke-linejoin="round" d="M284.828,57.9
				c0,0-3.31,2.243-3.738,4.482c-0.427,2.24-0.854,5.658-0.212,6.402c0.641,0.749,3.628,1.603,5.765,0.214
				c2.132-1.384,0.534-5.76,0.534-5.76L284.828,57.9z"/>
			<path fill="#5C8727" stroke="#B4CC95" stroke-width="1.1807" stroke-linecap="round" stroke-linejoin="round" d="M306.389,66.758
				c0,0-1.493,4.482-4.271,4.912c-2.774,0.424-6.404,1.066-6.938,0.533c-0.532-0.533-1.39-2.456-1.067-3.096
				c0.321-0.641,4.271-3.203,5.231-3.949c0.961-0.75,2.881-2.992,2.881-2.992L306.389,66.758z"/>
			<path fill="#5C8727" stroke="#B4CC95" stroke-width="1.1807" stroke-linecap="round" stroke-linejoin="round" d="M288.883,52.028
				c0,0-2.989,3.629-3.417,5.872c-0.428,2.243-2.028,9.605,0,10.994c2.027,1.387,5.658,1.28,6.404,1.173
				c0.749-0.106,0.855-0.854,3.417-1.6c2.561-0.749,6.938-6.301,6.938-6.301l-3.63-6.405l-6.403-5.014L288.883,52.028z"/>
			<path fill="#5C8727" stroke="#B4CC95" stroke-width="1.1807" stroke-linecap="round" stroke-linejoin="round" d="M278.527,41.673
				c0,0-3.203,3.096-4.375,5.445c-1.176,2.347-1.493,7.256-1.069,7.684c0.427,0.428,3.31-0.64,4.377-1.813s2.882-8.541,2.882-8.541
				L278.527,41.673z"/>
			<path fill="#5C8727" stroke="#B4CC95" stroke-width="1.1807" stroke-linecap="round" stroke-linejoin="round" d="M278.634,45.407
				c0,0-4.482,9.075-3.842,12.81c0.641,3.738,0.641,4.378,0.641,4.378l3.736,2.137c0,0,2.56-0.749,3.842-1.177
				c1.281-0.426,7.473-11.74,7.473-11.74l0.64-1.814L278.634,45.407z"/>
			<path fill="#5C8727" stroke="#B4CC95" stroke-width="1.1807" stroke-linecap="round" stroke-linejoin="round" d="M281.198,32.278
				c0,0-9.03,8.491-0.856,15.693c4.486,3.949,10.036,2.562,10.036,2.562l0.426-12.81L281.198,32.278z"/>
			<path fill="#5C8727" stroke="#B4CC95" stroke-width="1.1807" stroke-linecap="round" stroke-linejoin="round" d="M307.99,52.349
				c0,0-1.815,5.655-3.201,7.151c-1.388,1.493-3.736,3.095-5.872,2.455c-2.135-0.643-2.027-6.726-1.388-9.606
				C298.17,49.465,307.99,52.349,307.99,52.349z"/>
			<path fill="#5C8727" stroke="#B4CC95" stroke-width="1.1807" stroke-linecap="round" stroke-linejoin="round" d="M298.17,21.39
				c0,0-10.354-1.173-11.527-0.854c-1.176,0.32-5.98,1.71-6.621,6.297c-0.637,4.59,2.351,7.261,2.351,7.261s3.094,3.202,4.908,3.308
				c1.815,0.108,4.591-0.748,4.591-0.748L298.17,21.39z"/>
			<path fill="#5C8727" stroke="#B4CC95" stroke-width="1.1807" stroke-linecap="round" stroke-linejoin="round" d="M309.592,48.72
				c0,0-6.726,11.637-16.333,4.802c-9.607-6.831-6.616-12.169-3.094-18.574c3.523-6.404,6.083-5.443,6.083-5.443l14.624,1.601
				l1.389,12.062L309.592,48.72z"/>
			<path fill="#5C8727" stroke="#B4CC95" stroke-width="1.1807" stroke-linecap="round" stroke-linejoin="round" d="M331.688,38.792
				c0,0,0.642,6.831-0.853,9.18c-1.493,2.347-3.31,4.377-6.941,3.843c-3.627-0.535,0.215-15.585,0.215-15.585L331.688,38.792z"/>
			<path fill="#5C8727" stroke="#B4CC95" stroke-width="1.1807" stroke-linecap="round" stroke-linejoin="round" d="M326.352,39.43
				c0,0,0.214,10.57-1.603,13.131c-1.815,2.563-7.791,3.63-7.791,3.63l-0.854-12.597L326.352,39.43z"/>
			<path fill="#5C8727" stroke="#B4CC95" stroke-width="1.1807" stroke-linecap="round" stroke-linejoin="round" d="M319.414,46.796
				c0,0,1.28,9.287,0.212,11.634c-1.068,2.353-1.707,3.952-4.908,5.553c-3.203,1.602-5.019,2.029-6.619,2.139
				c-1.603,0.104-2.562,0.53-3.523-0.109c-0.962-0.641-2.881-3.203-2.457-5.869c0.428-2.67,6.193-11.959,6.193-11.959
				L319.414,46.796z"/>
			<path fill="#5C8727" stroke="#B4CC95" stroke-width="1.1807" stroke-linecap="round" stroke-linejoin="round" d="M325.711,37.617
				c0,0-0.641,5.124-3.735,8.967c-3.098,3.841-5.553,4.803-7.687,5.336c-2.135,0.533-7.473,0.429-7.473,0.429
				s-1.92-10.354,1.068-16.333c2.988-5.978,4.482-8.434,4.482-8.434l8.434,0.641L325.711,37.617z"/>
			<path fill="#5C8727" stroke="#B4CC95" stroke-width="1.1807" stroke-linecap="round" stroke-linejoin="round" d="M310.981,13.383
				l-7.048-0.105l-1.922,1.281l-1.918,1.708c0,0-0.641-0.108-1.388,0.32c-0.747,0.426-1.815,0.64-2.562,1.814
				c-0.748,1.174-1.708,2.028-2.562,3.31c-0.854,1.281-2.67,3.736-2.67,3.736h-0.641c0,0-1.921,1.601-1.921,2.029
				c0,0.425-0.533,2.562,0.215,3.094c0.748,0.535,2.347,2.135,2.347,2.135s2.456,2.777,10.143,2.456
				c7.685-0.32,11.634-4.591,11.634-4.591l2.777-2.988L310.981,13.383z"/>
			<path fill="#5C8727" stroke="#B4CC95" stroke-width="1.1807" stroke-linecap="round" stroke-linejoin="round" d="M325.604,24.166
				c0,0,9.075,0,9.607,7.045c0.535,7.046-3.203,10.036-3.203,10.036l-8.859,0.426c0,0-4.375-4.163-4.698-7.686
				C318.13,30.464,318.988,25.02,325.604,24.166z"/>
			<path fill="#5C8727" stroke="#B4CC95" stroke-width="1.1807" stroke-linecap="round" stroke-linejoin="round" d="M321.654,20.536
				c0,0,1.174-3.843,0.747-5.229c-0.425-1.389-1.918-3.417-4.165-5.126c-2.24-1.706-4.694-2.453-6.082-2.346
				c-1.388,0.107-3.095,0.212-3.095,0.212s-0.854,4.269-0.748,5.231c0.104,0.961,6.616,5.977,6.616,5.977L321.654,20.536z"/>
			<g>
				<path fill="#5C8727" stroke="#B4CC95" stroke-width="1.1807" stroke-linecap="round" stroke-linejoin="round" d="
					M322.401,19.362c0,0-3.201-4.484-5.443-4.803c-2.24-0.319-7.475,0-7.475,0l-2.988,3.736c0,0,0.215,4.804,1.388,6.404
					c1.176,1.602,0.854,3.95,2.988,4.059c2.137,0.104,4.057,1.067,4.485,1.173c0.427,0.108,1.816,0.534,1.816,0.534h4.375
					c0,0,1.174-0.213,1.707-0.96c0.535-0.747,1.493-1.708,1.493-2.774c0-1.07-0.105-1.923-0.426-3.312
					c-0.322-1.385-1.28-2.135-1.28-2.135L322.401,19.362z"/>
				
					<line fill="#5C8727" stroke="#B4CC95" stroke-width="1.1807" stroke-linecap="round" stroke-linejoin="round" x1="323.043" y1="24.699" x2="322.934" y2="20.217"/>
			</g>
		</g>
		<path fill="#5C8727" stroke="#B4CC95" stroke-width="1.1807" stroke-linecap="round" stroke-linejoin="round" d="M332.825,15.29
			c0,0-0.877,3.357-0.072,6.06c0.801,2.699,2.117,5.036,2.117,5.036s-5.623-4.745-5.474-5.913c0.145-1.167,0.145-3.285,0.145-3.285"
			/>
	</g>
	<g>
		<path fill="#5C8727" d="M343.669,20.994c0,0,6.143,1.021,5.045-6.556c-1.098-7.578-3.012-13.902-3.012-13.902L348.14,0
			c0,0,4.01,13.086,3.961,13.464c-0.051,0.381,2.803,8.367,2.803,8.367l-6.487,2.903L343.669,20.994z"/>
		<g>
			<path fill="#5C8727" stroke="#B4CC95" stroke-width="1.1807" stroke-linecap="round" stroke-linejoin="round" d="M331.699,26.6
				c0,0-2.018,0.772-3.813,2.775c-1.797,1.999-3.012,3.205-3.151,4.179c-0.14,0.975-2.354,5.896-2.354,5.896
				s-0.26,1.649,0.004,2.269c0.26,0.624,1.385,1.908,1.385,1.908l7.156-4.144L331.699,26.6z"/>
			<path fill="#5C8727" stroke="#B4CC95" stroke-width="1.1807" stroke-linecap="round" stroke-linejoin="round" d="M345.129,73.172
				c0,0-1.013,3.868,0.143,5.834c1.159,1.966,3.09,4.816,4.063,4.958c0.973,0.138,3.786-1.191,4.478-3.644
				c0.686-2.447-3.401-4.684-3.401-4.684L345.129,73.172z"/>
			<path fill="#5C8727" stroke="#B4CC95" stroke-width="1.1807" stroke-linecap="round" stroke-linejoin="round" d="M367.183,65.62
				c0,0,1.833,4.355,0.025,6.506c-1.808,2.153-4.112,5.024-4.863,4.979c-0.754-0.053-2.663-0.935-2.845-1.626
				c-0.181-0.692,1.099-5.223,1.329-6.417c0.23-1.196,0.196-4.15,0.196-4.15L367.183,65.62z"/>
			<path fill="#5C8727" stroke="#B4CC95" stroke-width="1.1807" stroke-linecap="round" stroke-linejoin="round" d="M344.31,66.081
				c0,0,0.141,4.701,1.299,6.671c1.158,1.965,4.809,8.561,7.248,8.267c2.44-0.298,5.099-2.768,5.592-3.341
				c0.49-0.573,0.08-1.202,1.509-3.456c1.436-2.249,1.066-9.311,1.066-9.311l-6.949-2.421l-8.124,0.449L344.31,66.081z"/>
			<path fill="#5C8727" stroke="#B4CC95" stroke-width="1.1807" stroke-linecap="round" stroke-linejoin="round" d="M329.694,65.124
				c0,0-0.367,4.439,0.299,6.976c0.667,2.543,3.661,6.445,4.263,6.486c0.603,0.038,2.068-2.664,2.095-4.249
				c0.029-1.588-3.461-8.324-3.461-8.324L329.694,65.124z"/>
			<path fill="#5C8727" stroke="#B4CC95" stroke-width="1.1807" stroke-linecap="round" stroke-linejoin="round" d="M332.238,67.862
				c0,0,2.61,9.777,5.555,12.165c2.946,2.387,3.368,2.871,3.368,2.871l4.218-0.86c0,0,1.433-2.25,2.116-3.418
				c0.68-1.164-2.123-13.752-2.123-13.752l-0.714-1.787L332.238,67.862z"/>
			<path fill="#5C8727" stroke="#B4CC95" stroke-width="1.1807" stroke-linecap="round" stroke-linejoin="round" d="M325.51,56.297
				c0,0-1.194,12.338,9.703,12.366c5.977,0.011,9.234-4.69,9.234-4.69l-8.123-9.914L325.51,56.297z"/>
			<path fill="#5C8727" stroke="#B4CC95" stroke-width="1.1807" stroke-linecap="round" stroke-linejoin="round" d="M358.887,53.726
				c0,0,2.364,5.454,2.307,7.489c-0.059,2.038-0.767,4.793-2.797,5.719c-2.028,0.925-5.955-3.725-7.375-6.31
				C349.604,58.033,358.887,53.726,358.887,53.726z"/>
			<path fill="#5C8727" stroke="#B4CC95" stroke-width="1.1807" stroke-linecap="round" stroke-linejoin="round" d="M331.094,36.922
				c0,0-8.557,5.943-9.229,6.957c-0.674,1.017-3.371,5.226-0.829,9.1c2.546,3.872,6.553,3.912,6.553,3.912s4.438,0.366,5.873-0.749
				c1.436-1.117,2.959-3.591,2.959-3.591L331.094,36.922z"/>
			<path fill="#5C8727" stroke="#B4CC95" stroke-width="1.1807" stroke-linecap="round" stroke-linejoin="round" d="M357.699,49.941
				c0,0,2.612,13.185-9.114,14.378c-11.73,1.195-12.998-4.788-14.575-11.924c-1.571-7.139,0.988-8.106,0.988-8.106l12.054-8.436
				l8.993,8.154L357.699,49.941z"/>
			<path fill="#5C8727" stroke="#B4CC95" stroke-width="1.1807" stroke-linecap="round" stroke-linejoin="round" d="M367.771,27.914
				c0,0,4.987,4.712,5.408,7.464c0.426,2.751,0.397,5.473-2.681,7.463c-3.084,1.992-10.115-11.86-10.115-11.86L367.771,27.914z"/>
			<path fill="#5C8727" stroke="#B4CC95" stroke-width="1.1807" stroke-linecap="round" stroke-linejoin="round" d="M364.18,31.909
				c0,0,7.126,7.808,7.447,10.931c0.329,3.122-3.464,7.865-3.464,7.865l-8.946-8.91L364.18,31.909z"/>
			<path fill="#5C8727" stroke="#B4CC95" stroke-width="1.1807" stroke-linecap="round" stroke-linejoin="round" d="M363.815,42.023
				c0,0,7.085,6.14,7.83,8.61c0.748,2.471,1.323,4.095-0.03,7.411c-1.354,3.316-2.435,4.832-3.568,5.968
				c-1.136,1.136-1.573,2.09-2.72,2.242c-1.145,0.15-4.278-0.507-5.717-2.796c-1.438-2.288-3.226-13.07-3.226-13.07L363.815,42.023z
				"/>
			<path fill="#5C8727" stroke="#B4CC95" stroke-width="1.1807" stroke-linecap="round" stroke-linejoin="round" d="M362.501,30.967
				c0,0,2.895,4.277,3.103,9.207c0.207,4.931-1.009,7.272-2.26,9.078c-1.254,1.809-5.34,5.248-5.34,5.248s-8.27-6.521-9.963-12.983
				c-1.693-6.466-2.188-9.297-2.188-9.297l6.765-5.081L362.501,30.967z"/>
			<path fill="#5C8727" stroke="#B4CC95" stroke-width="1.1807" stroke-linecap="round" stroke-linejoin="round" d="M335.45,22.457
				l-5.37,4.564l-0.598,2.23l-0.319,2.55c0,0-0.552,0.341-0.833,1.156c-0.28,0.814-0.943,1.677-0.728,3.055
				c0.209,1.374,0.05,2.649,0.253,4.174c0.201,1.529,0.453,4.572,0.453,4.572l-0.48,0.422c0,0-0.388,2.471-0.108,2.793
				c0.281,0.319,1.29,2.277,2.203,2.186c0.914-0.091,3.173,0.057,3.173,0.057s3.676,0.469,9.243-4.839
				c5.569-5.307,5.724-11.121,5.724-11.121l0.118-4.077L335.45,22.457z"/>
			<path fill="#5C8727" stroke="#B4CC95" stroke-width="1.1807" stroke-linecap="round" stroke-linejoin="round" d="M353.555,20.923
				c0,0,6.822-5.981,11.87-1.033c5.045,4.945,4.205,9.657,4.205,9.657l-6.38,6.162c0,0-6.039-0.248-8.601-2.687
				C352.087,30.587,349.141,25.929,353.555,20.923z"/>
			<path fill="#5C8727" stroke="#B4CC95" stroke-width="1.1807" stroke-linecap="round" stroke-linejoin="round" d="M348.192,20.797
				c0,0-1.651-3.662-2.887-4.425c-1.235-0.761-3.696-1.301-6.51-1.108c-2.812,0.195-5.147,1.248-6.121,2.244
				c-0.973,0.997-2.188,2.204-2.188,2.204s2.171,3.771,2.885,4.423c0.714,0.653,8.917,0.134,8.917,0.134L348.192,20.797z"/>
			<g>
				<path fill="#5C8727" stroke="#B4CC95" stroke-width="1.1807" stroke-linecap="round" stroke-linejoin="round" d="
					M347.979,19.424c0,0-5.364-1.261-7.26-0.024c-1.896,1.236-5.619,4.928-5.619,4.928l0.216,4.779c0,0,3.328,3.472,5.265,3.898
					c1.938,0.434,3.246,2.41,4.921,1.083c1.676-1.328,3.753-1.872,4.146-2.074c0.396-0.199,1.716-0.794,1.716-0.794l3.294-2.887
					c0,0,0.74-0.931,0.648-1.844c-0.088-0.917,0-2.272-0.707-3.073c-0.702-0.804-1.346-1.375-2.505-2.206
					c-1.152-0.833-2.366-0.762-2.366-0.762L347.979,19.424z"/>
				
					<line fill="#5C8727" stroke="#B4CC95" stroke-width="1.1807" stroke-linecap="round" stroke-linejoin="round" x1="351.98" y1="23.014" x2="348.943" y2="19.714"/>
			</g>
		</g>
		<path fill="#5C8727" stroke="#B4CC95" stroke-width="1.1807" stroke-linecap="round" stroke-linejoin="round" d="M348.564,9.49
			c0,0-1.553,3.102-3.938,4.604c-2.385,1.501-4.913,2.392-4.913,2.392s7.354,0.138,8.013-0.837c0.66-0.975,2.057-2.565,2.057-2.565"
			/>
	</g>
	<g>
		<path fill="#5C8727" d="M367.072,27.166c0,0,5.293-3.279-0.527-8.253c-5.819-4.976-11.431-8.467-11.431-8.467l1.484-2.01
			c0,0,11.64,7.197,11.853,7.512c0.211,0.32,7.621,4.446,7.621,4.446l-2.963,6.458L367.072,27.166z"/>
		<g>
			<path fill="#5C8727" stroke="#B4CC95" stroke-width="1.1807" stroke-linecap="round" stroke-linejoin="round" d="M390.569,14.025
				c0,0,2.026-0.747,4.695-0.428c2.669,0.321,4.376,0.428,5.125,1.067c0.744,0.642,5.655,2.882,5.655,2.882s1.282,1.068,1.493,1.708
				c0.213,0.641,0.213,2.348,0.213,2.348l-8.11,1.603L390.569,14.025z"/>
			<path fill="#5C8727" stroke="#B4CC95" stroke-width="1.1807" stroke-linecap="round" stroke-linejoin="round" d="M411.171,57.9
				c0,0,3.308,2.243,3.734,4.482c0.428,2.24,0.854,5.658,0.214,6.402c-0.641,0.749-3.628,1.603-5.765,0.214
				c-2.134-1.384-0.534-5.76-0.534-5.76L411.171,57.9z"/>
			<path fill="#5C8727" stroke="#B4CC95" stroke-width="1.1807" stroke-linecap="round" stroke-linejoin="round" d="M389.608,66.758
				c0,0,1.494,4.482,4.267,4.912c2.779,0.424,6.407,1.066,6.941,0.533c0.53-0.533,1.387-2.456,1.066-3.096
				c-0.32-0.641-4.27-3.203-5.229-3.949c-0.964-0.75-2.883-2.992-2.883-2.992L389.608,66.758z"/>
			<path fill="#5C8727" stroke="#B4CC95" stroke-width="1.1807" stroke-linecap="round" stroke-linejoin="round" d="M407.112,52.028
				c0,0,2.99,3.629,3.418,5.872c0.427,2.243,2.026,9.605,0,10.994c-2.028,1.387-5.658,1.28-6.404,1.173
				c-0.75-0.106-0.854-0.854-3.416-1.6c-2.562-0.749-6.938-6.301-6.938-6.301l3.629-6.405l6.402-5.014L407.112,52.028z"/>
			<path fill="#5C8727" stroke="#B4CC95" stroke-width="1.1807" stroke-linecap="round" stroke-linejoin="round" d="M417.468,41.673
				c0,0,3.203,3.096,4.379,5.445c1.171,2.347,1.493,7.256,1.067,7.684c-0.427,0.428-3.31-0.64-4.376-1.813
				c-1.07-1.174-2.882-8.541-2.882-8.541L417.468,41.673z"/>
			<path fill="#5C8727" stroke="#B4CC95" stroke-width="1.1807" stroke-linecap="round" stroke-linejoin="round" d="M417.362,45.407
				c0,0,4.484,9.075,3.842,12.81c-0.644,3.738-0.644,4.378-0.644,4.378l-3.734,2.137c0,0-2.56-0.749-3.841-1.177
				c-1.282-0.426-7.473-11.74-7.473-11.74L404.872,50L417.362,45.407z"/>
			<path fill="#5C8727" stroke="#B4CC95" stroke-width="1.1807" stroke-linecap="round" stroke-linejoin="round" d="M414.796,32.278
				c0,0,9.034,8.491,0.86,15.693c-4.485,3.949-10.037,2.562-10.037,2.562l-0.427-12.81L414.796,32.278z"/>
			<path fill="#5C8727" stroke="#B4CC95" stroke-width="1.1807" stroke-linecap="round" stroke-linejoin="round" d="M388.007,52.349
				c0,0,1.814,5.655,3.201,7.151c1.388,1.493,3.736,3.095,5.872,2.455c2.134-0.643,2.026-6.726,1.389-9.606
				C397.827,49.465,388.007,52.349,388.007,52.349z"/>
			<path fill="#5C8727" stroke="#B4CC95" stroke-width="1.1807" stroke-linecap="round" stroke-linejoin="round" d="M397.827,21.39
				c0,0,10.354-1.173,11.527-0.854c1.176,0.32,5.979,1.71,6.619,6.297c0.639,4.59-2.348,7.261-2.348,7.261s-3.096,3.202-4.912,3.308
				c-1.815,0.108-4.588-0.748-4.588-0.748L397.827,21.39z"/>
			<path fill="#5C8727" stroke="#B4CC95" stroke-width="1.1807" stroke-linecap="round" stroke-linejoin="round" d="M386.403,48.72
				c0,0,6.728,11.637,16.333,4.802c9.61-6.831,6.618-12.169,3.095-18.574c-3.521-6.404-6.081-5.443-6.081-5.443l-14.626,1.601
				l-1.39,12.062L386.403,48.72z"/>
			<path fill="#5C8727" stroke="#B4CC95" stroke-width="1.1807" stroke-linecap="round" stroke-linejoin="round" d="M364.309,38.792
				c0,0-0.644,6.831,0.853,9.18c1.493,2.347,3.31,4.377,6.939,3.843c3.629-0.535-0.213-15.585-0.213-15.585L364.309,38.792z"/>
			<path fill="#5C8727" stroke="#B4CC95" stroke-width="1.1807" stroke-linecap="round" stroke-linejoin="round" d="M369.644,39.43
				c0,0-0.213,10.57,1.604,13.131c1.816,2.563,7.792,3.63,7.792,3.63l0.853-12.597L369.644,39.43z"/>
			<path fill="#5C8727" stroke="#B4CC95" stroke-width="1.1807" stroke-linecap="round" stroke-linejoin="round" d="M376.583,46.796
				c0,0-1.281,9.287-0.21,11.634c1.065,2.353,1.705,3.952,4.904,5.553c3.206,1.602,5.022,2.029,6.619,2.139
				c1.604,0.104,2.562,0.53,3.521-0.109c0.964-0.641,2.886-3.203,2.457-5.869c-0.427-2.67-6.188-11.959-6.188-11.959L376.583,46.796
				z"/>
			<path fill="#5C8727" stroke="#B4CC95" stroke-width="1.1807" stroke-linecap="round" stroke-linejoin="round" d="M370.284,37.617
				c0,0,0.643,5.124,3.735,8.967c3.096,3.841,5.553,4.803,7.686,5.336c2.138,0.533,7.475,0.429,7.475,0.429
				s1.923-10.354-1.069-16.333c-2.986-5.978-4.479-8.434-4.479-8.434l-8.436,0.641L370.284,37.617z"/>
			<path fill="#5C8727" stroke="#B4CC95" stroke-width="1.1807" stroke-linecap="round" stroke-linejoin="round" d="M385.015,13.383
				l7.051-0.105l1.92,1.281l1.918,1.708c0,0,0.641-0.108,1.39,0.32c0.744,0.426,1.813,0.64,2.561,1.814
				c0.749,1.174,1.709,2.028,2.562,3.31c0.855,1.281,2.672,3.736,2.672,3.736h0.64c0,0,1.92,1.601,1.92,2.029
				c0,0.425,0.534,2.562-0.214,3.094c-0.748,0.535-2.346,2.135-2.346,2.135s-2.455,2.777-10.144,2.456
				c-7.686-0.32-11.634-4.591-11.634-4.591l-2.775-2.988L385.015,13.383z"/>
			<path fill="#5C8727" stroke="#B4CC95" stroke-width="1.1807" stroke-linecap="round" stroke-linejoin="round" d="M370.392,24.166
				c0,0-9.072,0-9.609,7.045c-0.532,7.046,3.206,10.036,3.206,10.036l8.858,0.426c0,0,4.379-4.163,4.699-7.686
				C377.866,30.464,377.009,25.02,370.392,24.166z"/>
			<path fill="#5C8727" stroke="#B4CC95" stroke-width="1.1807" stroke-linecap="round" stroke-linejoin="round" d="M374.34,20.536
				c0,0-1.173-3.843-0.746-5.229c0.426-1.389,1.919-3.417,4.165-5.126c2.242-1.706,4.694-2.453,6.084-2.346
				c1.388,0.107,3.096,0.212,3.096,0.212s0.854,4.269,0.748,5.231c-0.107,0.961-6.622,5.977-6.622,5.977L374.34,20.536z"/>
			<g>
				<path fill="#5C8727" stroke="#B4CC95" stroke-width="1.1807" stroke-linecap="round" stroke-linejoin="round" d="
					M373.594,19.362c0,0,3.204-4.484,5.445-4.803c2.238-0.319,7.475,0,7.475,0l2.986,3.736c0,0-0.214,4.804-1.39,6.404
					c-1.172,1.602-0.852,3.95-2.986,4.059c-2.134,0.104-4.06,1.067-4.485,1.173c-0.427,0.108-1.816,0.534-1.816,0.534h-4.376
					c0,0-1.173-0.213-1.706-0.96c-0.536-0.747-1.493-1.708-1.493-2.774c0-1.07,0.104-1.923,0.427-3.312
					c0.323-1.385,1.279-2.135,1.279-2.135L373.594,19.362z"/>
				
					<line fill="#5C8727" stroke="#B4CC95" stroke-width="1.1807" stroke-linecap="round" stroke-linejoin="round" x1="372.953" y1="24.699" x2="373.063" y2="20.217"/>
			</g>
		</g>
		<path fill="#5C8727" stroke="#B4CC95" stroke-width="1.1807" stroke-linecap="round" stroke-linejoin="round" d="M363.171,15.29
			c0,0,0.875,3.357,0.075,6.06c-0.808,2.699-2.121,5.036-2.121,5.036s5.625-4.745,5.475-5.913c-0.145-1.167-0.145-3.285-0.145-3.285
			"/>
	</g>
</g>
</svg>
